<?xml version="1.0" encoding="UTF-8" standalone="no"?>
<!-- Created with Inkscape (http://www.inkscape.org/) -->
<svg xmlns:dc="http://purl.org/dc/elements/1.1/" xmlns:cc="http://creativecommons.org/ns#" xmlns:rdf="http://www.w3.org/1999/02/22-rdf-syntax-ns#" xmlns:svg="http://www.w3.org/2000/svg" xmlns="http://www.w3.org/2000/svg" xmlns:inkscape="http://www.inkscape.org/namespaces/inkscape" version="1.1" width="234.60001" height="289.39999" id="svg2" xml:space="preserve"><metadata id="metadata8"><rdf:RDF><cc:Work rdf:about=""><dc:format>image/svg+xml</dc:format><dc:type rdf:resource="http://purl.org/dc/dcmitype/StillImage"/></cc:Work></rdf:RDF></metadata><defs id="defs6"/><g transform="matrix(1.25,0,0,-1.25,0,289.4)" id="g10"><g transform="scale(0.1,0.1)" id="g12"><path d="M 1689.39,780.688 1236.45,1928.47 985.781,1414.88 783.105,1928.47 222.922,780.688 C 206.77,751.5 199.285,741.781 187.188,722.484 l 96.417,0 c 1.793,20.204 7.11,39.762 15.782,58.204 l 245.652,508.612 379.453,0 -248.23,-508.612 C 660.105,751.5 652.629,741.781 640.527,722.484 l 96.414,0 c 1.797,20.204 7.114,39.762 15.786,58.204 L 956.48,1202.55 1120.55,780.688 c 7.54,-22.172 9.04,-38.54 9.95,-58.204 l 136.31,0 c -12.02,18.446 -20.74,33.211 -30.76,58.204 l -200.71,508.612 340.75,0 197.8,-508.612 c 7.54,-22.172 9.04,-38.54 9.95,-58.204 l 136.31,0 c -12.03,18.446 -20.75,33.211 -30.76,58.204 z m -1124.109,551.032 187.074,383.12 151.266,-383.12 -338.34,0 z m 453.339,0 187.07,383.12 151.27,-383.12 -338.34,0 z m -240.421,681.16 c 101.25,0 183.328,67.68 183.328,151.17 0,83.47 -82.078,151.16 -183.328,151.16 -101.25,0 -183.332,-67.69 -183.332,-151.16 0,-83.49 82.082,-151.17 183.332,-151.17 z m 1.395,272.5 c 56.019,0 101.441,-53.22 101.441,-118.86 0,-65.64 -45.422,-118.85 -101.441,-118.85 -56.02,0 -101.442,53.21 -101.442,118.85 0,65.64 45.422,118.86 101.442,118.86" inkscape:connector-curvature="0" id="path14" style="fill:#231f20;fill-opacity:1;fill-rule:evenodd;stroke:none"/><path d="M 61.0508,435.629 41.9102,372.598 0,372.598 71.2773,595.02 l 51.8127,0 72.269,-222.422 -43.558,0 -20.129,63.031 -70.6212,0 z m 36.9609,230.34 c 22.7693,0 35.3083,-13.86 35.3083,-31.348 0,-17.164 -13.855,-30.695 -35.6403,-30.695 -22.1094,0 -35.9688,13.863 -35.9688,30.695 0,17.156 13.1993,31.348 35.9688,31.348 l 0.332,0 z M 124.742,466.32 107.25,521.098 c -4.289,13.531 -7.918,28.711 -11.2188,41.578 l -0.6601,0 C 92.0703,549.809 88.7695,534.297 84.8086,521.098 l -17.1563,-54.778 57.0897,0 z M 97.0234,651.445 c -9.5742,0 -14.8515,-8.246 -14.8515,-16.824 0,-7.922 5.9375,-15.844 15.1836,-15.844 9.5625,0 15.5035,7.258 15.5035,16.168 0,8.914 -5.941,16.5 -15.5035,16.5 l -0.3321,0" inkscape:connector-curvature="0" id="path16" style="fill:#231f20;fill-opacity:1;fill-rule:nonzero;stroke:none"/><path d="m 220.211,607.227 40.586,0 0,-96.032 0.664,0 c 9.894,15.516 27.387,25.743 51.48,25.743 39.266,0 67.317,-32.668 66.985,-81.508 0,-57.754 -36.629,-86.461 -72.93,-86.461 -20.789,0 -39.266,7.922 -50.82,27.722 l -0.656,0 -1.985,-24.093 -34.648,0 c 0.66,10.886 1.324,28.711 1.324,44.879 l 0,189.75 z m 40.586,-168.301 c 0,-3.297 0.332,-6.598 0.988,-9.571 4.293,-16.5 18.485,-28.378 35.973,-28.378 25.41,0 40.918,20.132 40.918,52.8 0,28.379 -13.528,51.481 -40.59,51.481 -16.5,0 -31.68,-11.879 -35.969,-29.699 -0.656,-2.969 -1.32,-6.598 -1.32,-10.559 l 0,-26.074" inkscape:connector-curvature="0" id="path18" style="fill:#231f20;fill-opacity:1;fill-rule:nonzero;stroke:none"/><path d="m 481.66,368.969 c -45.211,0 -80.523,31.019 -80.523,82.828 0,52.805 34.656,85.141 83.164,85.141 47.847,0 79.859,-33.661 79.859,-82.5 0,-59.071 -41.582,-85.469 -82.168,-85.469 l -0.332,0 z m 1.32,29.371 c 23.098,0 39.27,22.437 39.27,55.105 0,25.082 -11.219,54.125 -38.938,54.125 -28.71,0 -40.261,-28.054 -40.261,-54.781 0,-31.019 15.508,-54.449 39.601,-54.449 l 0.328,0" inkscape:connector-curvature="0" id="path20" style="fill:#231f20;fill-opacity:1;fill-rule:nonzero;stroke:none"/><path d="m 711.992,435.629 -19.14,-63.031 -41.911,0 71.282,222.422 51.808,0 72.274,-222.422 -43.563,0 -20.129,63.031 -70.621,0 z m 63.692,30.691 -17.493,54.778 c -4.289,13.531 -7.918,28.711 -11.218,41.578 l -0.661,0 c -3.3,-12.867 -6.601,-28.379 -10.558,-41.578 l -17.16,-54.778 57.09,0" inkscape:connector-curvature="0" id="path22" style="fill:#231f20;fill-opacity:1;fill-rule:nonzero;stroke:none"/><path d="m 911.145,462.688 0.664,0 c 3.957,6.273 8.578,13.203 12.539,18.812 l 39.265,51.805 48.847,0 -59.733,-65.668 67.973,-95.039 -49.825,0 -46.203,70.953 -13.527,-16.172 0,-54.781 -40.586,0 0,234.629 40.586,0 0,-144.539" inkscape:connector-curvature="0" id="path24" style="fill:#231f20;fill-opacity:1;fill-rule:nonzero;stroke:none"/><path d="m 1161.58,411.207 c 0,-14.516 0.65,-28.707 2.64,-38.609 l -36.63,0 -2.97,17.824 -0.99,0 c -9.57,-12.547 -26.4,-21.453 -47.52,-21.453 -32.34,0 -50.49,23.429 -50.49,47.847 0,40.266 35.97,61.051 95.36,60.723 l 0,2.637 c 0,10.562 -4.28,28.051 -32.66,28.051 -15.84,0 -32.34,-4.95 -43.23,-11.879 l -7.92,26.402 c 11.88,7.262 32.67,14.188 58.08,14.188 51.48,0 66.33,-32.668 66.33,-67.977 l 0,-57.754 z m -39.6,39.93 c -28.71,0.332 -56.1,-5.61 -56.1,-30.028 0,-15.839 10.23,-23.101 23.1,-23.101 16.5,0 28.05,10.562 32,22.109 1,2.969 1,5.942 1,8.91 l 0,22.11" inkscape:connector-curvature="0" id="path26" style="fill:#231f20;fill-opacity:1;fill-rule:nonzero;stroke:none"/><path d="m 1349.41,607.227 0,-189.418 c 0,-16.5 0.66,-34.325 1.32,-45.211 l -35.97,0 -1.98,25.41 -0.66,0 c -9.57,-17.82 -29.04,-29.039 -52.14,-29.039 -38.61,0 -68.97,32.668 -68.97,82.168 -0.33,53.789 33.33,85.801 71.94,85.801 22.11,0 37.95,-8.911 45.21,-20.79 l 0.66,0 0,91.079 40.59,0 z M 1308.82,466.32 c 0,3.301 -0.33,7.586 -0.99,10.887 -3.63,15.512 -16.5,28.379 -34.98,28.379 -26.07,0 -40.59,-23.102 -40.59,-52.797 0,-29.703 14.52,-51.152 40.26,-51.152 16.5,0 31.03,11.218 34.98,28.711 0.99,3.632 1.32,7.593 1.32,11.879 l 0,24.093" inkscape:connector-curvature="0" id="path28" style="fill:#231f20;fill-opacity:1;fill-rule:nonzero;stroke:none"/><path d="m 1418.51,441.566 c 0.99,-29.039 23.76,-41.578 49.5,-41.578 18.81,0 32.01,2.973 44.55,7.258 l 5.94,-27.719 c -13.86,-5.937 -33,-10.23 -56.1,-10.23 -52.13,0 -82.83,32.012 -82.83,81.183 0,44.547 27.06,86.458 78.54,86.458 52.14,0 69.3,-42.899 69.3,-78.211 0,-7.59 -0.66,-13.532 -1.32,-17.161 l -107.58,0 z m 70.62,28.379 c 0.33,14.856 -6.27,39.274 -33.33,39.274 -25.08,0 -35.64,-22.774 -37.29,-39.274 l 70.62,0" inkscape:connector-curvature="0" id="path30" style="fill:#231f20;fill-opacity:1;fill-rule:nonzero;stroke:none"/><path d="m 1557.87,485.461 c 0,18.477 -0.66,33.988 -1.32,47.844 l 34.65,0 1.98,-23.758 0.99,0 c 7.59,12.543 22.11,27.391 49.5,27.391 21.12,0 37.62,-11.879 44.55,-29.704 l 0.66,0 c 5.61,8.914 12.21,15.516 19.47,20.133 9.24,6.27 19.47,9.571 33,9.571 26.4,0 53.46,-18.149 53.46,-69.629 l 0,-94.711 -39.6,0 0,88.769 c 0,26.731 -9.24,42.571 -28.71,42.571 -13.86,0 -24.09,-9.899 -28.38,-21.454 -1.32,-3.625 -1.98,-8.906 -1.98,-13.523 l 0,-96.363 -39.6,0 0,93.062 c 0,22.438 -8.91,38.278 -27.72,38.278 -15.18,0 -25.41,-11.883 -29.37,-22.77 -1.32,-4.289 -1.98,-8.91 -1.98,-13.531 l 0,-95.039 -39.6,0 0,112.863" inkscape:connector-curvature="0" id="path32" style="fill:#231f20;fill-opacity:1;fill-rule:nonzero;stroke:none"/><path d="m 1853.71,556.406 c -13.53,0 -22.44,9.903 -22.44,21.782 0,12.539 9.24,22.109 22.77,22.109 13.86,0 22.44,-9.57 22.77,-22.109 0,-11.879 -8.91,-21.782 -22.77,-21.782 l -0.33,0 z m -20.12,-183.808 0,160.707 40.58,0 0,-160.707 -40.58,0" inkscape:connector-curvature="0" id="path34" style="fill:#231f20;fill-opacity:1;fill-rule:nonzero;stroke:none"/><path d="m 297.281,295.02 0,-129.692 c 0,-43.558 18.149,-63.691 45.535,-63.691 29.372,0 46.864,20.133 46.864,63.691 l 0,129.692 40.59,0 0,-127.051 c 0,-68.6448 -35.309,-99.0002 -88.77,-99.0002 -51.48,0 -84.809,28.707 -84.809,98.6682 l 0,127.383 40.59,0" inkscape:connector-curvature="0" id="path36" style="fill:#231f20;fill-opacity:1;fill-rule:nonzero;stroke:none"/><path d="m 470.891,185.461 c 0,18.477 -0.664,33.988 -1.325,47.844 l 35.313,0 1.976,-24.086 0.993,0 c 7.257,12.539 24.75,27.719 51.476,27.719 28.055,0 57.09,-18.149 57.09,-68.969 l 0,-95.3713 -40.59,0 0,90.7543 c 0,23.093 -8.578,40.586 -30.687,40.586 -16.172,0 -27.395,-11.551 -31.68,-23.762 -1.316,-3.297 -1.98,-8.246 -1.98,-12.867 l 0,-94.7113 -40.586,0 0,112.8633" inkscape:connector-curvature="0" id="path38" style="fill:#231f20;fill-opacity:1;fill-rule:nonzero;stroke:none"/><path d="m 675.52,256.406 c -13.532,0 -22.446,9.903 -22.446,21.782 0,12.539 9.246,22.109 22.778,22.109 13.855,0 22.433,-9.57 22.765,-22.109 0,-11.879 -8.91,-21.782 -22.765,-21.782 l -0.332,0 z m -20.129,-183.8083 0,160.7073 40.586,0 0,-160.7073 -40.586,0" inkscape:connector-curvature="0" id="path40" style="fill:#231f20;fill-opacity:1;fill-rule:nonzero;stroke:none"/><path d="m 762.207,233.305 26.07,-81.508 c 4.618,-14.188 7.918,-27.063 10.895,-40.258 l 0.984,0 c 2.969,13.195 6.602,25.738 10.891,40.258 l 25.738,81.508 42.57,0 -61.375,-160.7073 -39.933,0 -59.731,160.7073 43.891,0" inkscape:connector-curvature="0" id="path42" style="fill:#231f20;fill-opacity:1;fill-rule:nonzero;stroke:none"/><path d="m 923.938,141.566 c 0.988,-29.039 23.757,-41.5777 49.5,-41.5777 18.808,0 32.012,2.9727 44.552,7.2577 l 5.94,-27.7187 c -13.86,-5.9375 -33,-10.2304 -56.102,-10.2304 -52.14,0 -82.832,32.0121 -82.832,81.1831 0,44.547 27.059,86.458 78.539,86.458 52.145,0 69.305,-42.899 69.305,-78.211 0,-7.59 -0.66,-13.532 -1.32,-17.161 l -107.582,0 z m 70.617,28.379 c 0.332,14.856 -6.27,39.274 -33.328,39.274 -25.079,0 -35.641,-22.774 -37.289,-39.274 l 70.617,0" inkscape:connector-curvature="0" id="path44" style="fill:#231f20;fill-opacity:1;fill-rule:nonzero;stroke:none"/><path d="m 1063.3,181.5 c 0,21.777 -0.34,37.617 -1.33,51.805 l 34.98,0 1.66,-30.356 0.98,0 c 7.93,22.438 26.73,33.989 44.22,33.989 3.96,0 6.27,-0.333 9.57,-0.993 l 0,-37.945 c -3.62,0.656 -7.26,0.988 -12.21,0.988 -19.14,0 -32.66,-12.211 -36.29,-30.691 -0.67,-3.629 -1,-7.922 -1,-12.207 l 0,-83.4923 -40.58,0 0,108.9023" inkscape:connector-curvature="0" id="path46" style="fill:#231f20;fill-opacity:1;fill-rule:nonzero;stroke:none"/><path d="m 1177.41,110.219 c 8.9,-5.61 26.39,-11.8792 40.91,-11.8792 17.83,0 25.75,7.5902 25.75,18.1482 0,10.891 -6.61,16.168 -26.4,23.43 -31.36,10.562 -44.22,27.719 -44.22,46.859 0,28.379 23.43,50.161 60.71,50.161 17.83,0 33.34,-4.29 42.91,-9.571 l -8.26,-28.379 c -6.59,3.961 -19.79,9.239 -33.99,9.239 -14.51,0 -22.44,-7.258 -22.44,-17.157 0,-10.23 7.6,-14.855 28.05,-22.441 29.37,-10.231 42.57,-25.078 42.91,-48.84 0,-29.3671 -22.77,-50.4921 -65.35,-50.4921 -19.47,0 -36.95,4.6211 -48.83,11.2226 l 8.25,29.6995" inkscape:connector-curvature="0" id="path48" style="fill:#231f20;fill-opacity:1;fill-rule:nonzero;stroke:none"/><path d="m 1332.87,256.406 c -13.53,0 -22.44,9.903 -22.44,21.782 0,12.539 9.24,22.109 22.77,22.109 13.85,0 22.44,-9.57 22.77,-22.109 0,-11.879 -8.92,-21.782 -22.77,-21.782 l -0.33,0 z m -20.13,-183.8083 0,160.7073 40.58,0 0,-160.7073 -40.58,0" inkscape:connector-curvature="0" id="path50" style="fill:#231f20;fill-opacity:1;fill-rule:nonzero;stroke:none"/><path d="m 1439.32,274.555 0,-41.25 38.61,0 0,-30.356 -38.61,0 0,-70.621 c 0,-19.801 5.28,-29.699 20.79,-29.699 7.27,0 11.22,0.332 15.84,1.648 l 0.66,-30.6872 c -5.94,-2.3125 -16.83,-4.2929 -29.37,-4.2929 -15.18,0 -27.39,4.9531 -34.98,13.2031 -8.91,9.2383 -12.87,24.086 -12.87,45.211 l 0,75.238 -22.77,0 0,30.356 22.77,0 0,30.035 39.93,11.215" inkscape:connector-curvature="0" id="path52" style="fill:#231f20;fill-opacity:1;fill-rule:nonzero;stroke:none"/><path d="M 1538.29,233.305 1567,147.18 c 3.3,-9.903 6.93,-22.11 9.23,-31.024 l 1,0 c 2.31,8.914 5.27,21.121 8.57,31.356 l 25.09,85.793 43.23,0 -40.26,-109.555 C 1591.75,63.6875 1576.89,36.957 1558.09,20.4609 1541.91,6.59766 1525.41,1.32031 1515.52,0 l -9.25,33.9883 c 6.94,1.6523 15.18,5.2812 23.44,11.2226 7.59,4.9453 16.83,14.5157 22.44,25.4024 1.32,2.9765 2.31,5.2851 2.31,7.2617 0,1.6523 -0.34,3.9609 -1.98,7.9219 l -59.07,147.5081 44.88,0" inkscape:connector-curvature="0" id="path54" style="fill:#231f20;fill-opacity:1;fill-rule:nonzero;stroke:none"/></g></g></svg>