<?xml version="1.0" encoding="UTF-8" standalone="no"?>
<!-- Created with Inkscape (http://www.inkscape.org/) -->
<svg xmlns:rdf="http://www.w3.org/1999/02/22-rdf-syntax-ns#" xmlns="http://www.w3.org/2000/svg" version="1.1" xmlns:cc="http://creativecommons.org/ns#" xmlns:dc="http://purl.org/dc/elements/1.1/" viewBox="0 0 147.58552 30.634816">
 <metadata>
  <rdf:RDF>
   <cc:Work rdf:about="">
    <dc:format>image/svg+xml</dc:format>
    <dc:type rdf:resource="http://purl.org/dc/dcmitype/StillImage"/>
    <dc:title/>
   </cc:Work>
  </rdf:RDF>
 </metadata>
 <g transform="translate(-37.853 -57.428)">
  <path d="m37.853 57.428h44.549v29.699h-44.549z" style="fill:#2347a3"/>
  <path d="m59.179 63.9 0.93982-0.68626 0.93982 0.68626-0.35829-1.1079 0.95635-0.68626h-1.1768l-0.36105-1.1217-0.36105 1.1217h-1.1741l0.9536 0.68626z" style="fill:#fff000"/>
  <path d="m54.315 65.209 0.93983-0.68627 0.93982 0.68627-0.3583-1.1107 0.95361-0.68627h-1.1768l-0.35829-1.1245-0.36105 1.1272-1.1768-0.0028 0.9536 0.68626z" style="fill:#fff000"/>
  <path d="m51.694 65.856-0.35829 1.1245-1.1768-0.0028 0.9536 0.68626-0.35829 1.1107 0.93982-0.68626 0.93982 0.68626-0.35553-1.1107 0.9536-0.68626h-1.1768z" style="fill:#fff000"/>
  <path d="m50.39 72.948 0.93707 0.68626-0.35554-1.1107 0.95361-0.68626h-1.1768l-0.3583-1.1217-0.36104 1.1245-1.1768-0.0028 0.95636 0.68626-0.3583 1.1107z" style="fill:#fff000"/>
  <path d="m52.055 76.71-0.35829-1.1217-0.36105 1.1245-1.1768-0.0028 0.9536 0.68626-0.35829 1.1107 0.94258-0.68626 0.93982 0.68626-0.35829-1.1107 0.9536-0.68626z" style="fill:#fff000"/>
  <path d="m55.621 80.276-0.35829-1.1217-0.36104 1.1245-1.1768-0.0028 0.9536 0.68627-0.35554 1.1107 0.93982-0.68627 0.93983 0.68627-0.3583-1.1107 0.95361-0.68627z" style="fill:#fff000"/>
  <path d="m60.48 81.569-0.36105-1.1245-0.3583 1.1272-1.1768-0.0028 0.9536 0.68626-0.35829 1.1107 0.93982-0.68627 0.93982 0.68627-0.35554-1.1107 0.9536-0.68626z" style="fill:#fff000"/>
  <path d="m65.339 80.276-0.36104-1.1217-0.36105 1.1245-1.1741-0.0028 0.95361 0.68627-0.3583 1.1107 0.93983-0.68627 0.93982 0.68627-0.3583-1.1107 0.95636-0.68627z" style="fill:#fff000"/>
  <path d="m68.906 76.71-0.36105-1.1217-0.36105 1.1245-1.1741-0.0028 0.9536 0.68626-0.35829 1.1107 0.93982-0.68626 0.93982 0.68626-0.35829-1.1107 0.95636-0.68626z" style="fill:#fff000"/>
  <path d="m71.375 71.823h-1.1768l-0.3638-1.1217-0.35829 1.1245-1.1768-0.0028 0.9536 0.68626-0.35554 1.1107 0.93707-0.68627 0.94258 0.68627-0.3583-1.1107z" style="fill:#fff000"/>
  <path d="m67.605 68.761 0.93982-0.68626 0.93982 0.68626-0.35829-1.1107 0.95636-0.68351h-1.1768l-0.36105-1.1245-0.36105 1.1245h-1.1741l0.9536 0.68351z" style="fill:#fff000"/>
  <path d="m64.992 62.29-0.3583 1.1245-1.1768-0.0028 0.9536 0.68626-0.35829 1.1107 0.94257-0.68627 0.93707 0.68627-0.35554-1.1107 0.9536-0.68626h-1.1768z" style="fill:#fff000"/>
  <g aria-label="Horizon 2020European Union Fundingfor Research &amp; Innovation" style="fill:#2347a3">
   <path style="fill:#2347a3" d="m91.822 69.096h-0.72907v-2.6843h-2.7359v2.6843h-0.72907v-5.4828h0.72907v2.1504h2.7359v-2.1504h0.72907v5.4828z"/>
   <path style="fill:#2347a3" d="m96.749 67.041q0 1.0052-0.51551 1.587-0.51551 0.58179-1.3808 0.58179-0.87268 0-1.3882-0.58179-0.51182-0.58179-0.51182-1.587t0.51182-1.587q0.51551-0.58547 1.3882-0.58547 0.86532 0 1.3808 0.58547 0.51551 0.58179 0.51551 1.587zm-0.71434 0q0-0.79904-0.31299-1.1857-0.31299-0.39031-0.869-0.39031-0.56338 0-0.87636 0.39031-0.3093 0.38663-0.3093 1.1857 0 0.77326 0.31299 1.1746 0.31299 0.39768 0.87268 0.39768 0.55233 0 0.86532-0.39399 0.31667-0.39768 0.31667-1.1783z"/>
   <path style="fill:#2347a3" d="m100.39 65.738h-0.0368q-0.15466-0.03682-0.30194-0.05155-0.14361-0.01841-0.34245-0.01841-0.32035 0-0.61861 0.14361-0.29826 0.13992-0.57442 0.36454v2.92h-0.69225v-4.113h0.69225v0.60756q0.41241-0.3314 0.72539-0.46764 0.31667-0.13992 0.64438-0.13992 0.18043 0 0.26143 0.01105 0.081 0.0074 0.24303 0.03314v0.71066z"/>
   <path style="fill:#2347a3" d="m101.79 64.295h-0.78062v-0.71803h0.78062v0.71803zm-0.0442 4.8016h-0.69225v-4.113h0.69225v4.113z"/>
   <path style="fill:#2347a3" d="m106.08 69.096h-3.3213v-0.51182l2.3971-3.0231h-2.3456v-0.5781h3.2072v0.49341l-2.4082 3.0341h2.4708v0.58547z"/>
   <path style="fill:#2347a3" d="m110.56 67.041q0 1.0052-0.51551 1.587-0.5155 0.58179-1.3808 0.58179-0.87268 0-1.3882-0.58179-0.51182-0.58179-0.51182-1.587t0.51182-1.587q0.51551-0.58547 1.3882-0.58547 0.86532 0 1.3808 0.58547 0.51551 0.58179 0.51551 1.587zm-0.71435 0q0-0.79904-0.31298-1.1857-0.31299-0.39031-0.869-0.39031-0.56338 0-0.87636 0.39031-0.30931 0.38663-0.30931 1.1857 0 0.77326 0.31299 1.1746 0.31299 0.39768 0.87268 0.39768 0.55233 0 0.86532-0.39399 0.31666-0.39768 0.31666-1.1783z"/>
   <path style="fill:#2347a3" d="m115.08 69.096h-0.69225v-2.3419q0-0.28353-0.0331-0.53024-0.0331-0.25039-0.12151-0.39031-0.0921-0.15465-0.26512-0.2283-0.17307-0.07733-0.44923-0.07733-0.28353 0-0.59283 0.13992-0.30931 0.13992-0.59284 0.35717v3.071h-0.69225v-4.113h0.69225v0.45659q0.32404-0.2688 0.67016-0.41977 0.34613-0.15097 0.71067-0.15097 0.66647 0 1.0163 0.40136 0.34981 0.40136 0.34981 1.1562v2.6696z"/>
   <path style="fill:#2347a3" d="m122.69 69.096h-3.7116v-0.76958q0.38663-0.3314 0.77326-0.6628 0.39031-0.3314 0.72539-0.65911 0.70698-0.68489 0.96842-1.0862 0.26144-0.40504 0.26144-0.87268 0-0.42714-0.28353-0.66648-0.27985-0.24302-0.78431-0.24302-0.33508 0-0.72539 0.11783t-0.76222 0.36086h-0.0368v-0.77326q0.26144-0.12888 0.69594-0.23566 0.43818-0.10678 0.8469-0.10678 0.84322 0 1.3219 0.40872 0.47868 0.40504 0.47868 1.101 0 0.31299-0.081 0.58547-0.0773 0.2688-0.23198 0.51182-0.14361 0.2283-0.33876 0.44923-0.19148 0.22093-0.46764 0.48973-0.394 0.38663-0.81377 0.75117-0.41977 0.36086-0.78431 0.67016h2.9494v0.62966z"/>
   <path style="fill:#2347a3" d="m127.48 66.353q0 1.4766-0.46396 2.1688-0.46027 0.68857-1.4324 0.68857-0.98683 0-1.4434-0.69962-0.45291-0.69962-0.45291-2.1504 0-1.4618 0.46027-2.1578 0.46027-0.69962 1.4361-0.69962 0.98682 0 1.4397 0.71066 0.4566 0.70698 0.4566 2.1394zm-0.96842 1.6717q0.12888-0.29826 0.17306-0.69962 0.0479-0.40504 0.0479-0.9721 0-0.55969-0.0479-0.9721-0.0442-0.4124-0.17674-0.69962-0.12888-0.28353-0.35349-0.42713-0.22094-0.14361-0.57074-0.14361-0.34613 0-0.57443 0.14361-0.22461 0.14361-0.35717 0.4345-0.12519 0.27248-0.17306 0.71066-0.0442 0.43818-0.0442 0.96105 0 0.57442 0.0405 0.96105t0.17306 0.69225q0.12151 0.28721 0.34244 0.43818 0.22462 0.15097 0.59284 0.15097 0.34612 0 0.57442-0.14361 0.22829-0.1436 0.35349-0.4345z"/>
   <path style="fill:#2347a3" d="m132.29 69.096h-3.7116v-0.76958q0.38663-0.3314 0.77326-0.6628 0.39031-0.3314 0.72539-0.65911 0.70699-0.68489 0.96842-1.0862 0.26144-0.40504 0.26144-0.87268 0-0.42714-0.28353-0.66648-0.27985-0.24302-0.78431-0.24302-0.33508 0-0.72539 0.11783t-0.76222 0.36086h-0.0368v-0.77326q0.26144-0.12888 0.69594-0.23566 0.43818-0.10678 0.8469-0.10678 0.84322 0 1.3219 0.40872 0.47868 0.40504 0.47868 1.101 0 0.31299-0.081 0.58547-0.0773 0.2688-0.23198 0.51182-0.14361 0.2283-0.33876 0.44923-0.19148 0.22093-0.46764 0.48973-0.394 0.38663-0.81377 0.75117-0.41977 0.36086-0.7843 0.67016h2.9494v0.62966z"/>
   <path style="fill:#2347a3" d="m137.08 66.353q0 1.4766-0.46396 2.1688-0.46027 0.68857-1.4324 0.68857-0.98683 0-1.4434-0.69962-0.45291-0.69962-0.45291-2.1504 0-1.4618 0.46027-2.1578 0.46028-0.69962 1.4361-0.69962 0.98682 0 1.4397 0.71066 0.4566 0.70698 0.4566 2.1394zm-0.96842 1.6717q0.12888-0.29826 0.17306-0.69962 0.0479-0.40504 0.0479-0.9721 0-0.55969-0.0479-0.9721-0.0442-0.4124-0.17674-0.69962-0.12888-0.28353-0.35349-0.42713-0.22093-0.14361-0.57074-0.14361-0.34613 0-0.57443 0.14361-0.22461 0.14361-0.35717 0.4345-0.12519 0.27248-0.17306 0.71066-0.0442 0.43818-0.0442 0.96105 0 0.57442 0.0405 0.96105t0.17306 0.69225q0.12151 0.28721 0.34244 0.43818 0.22462 0.15097 0.59284 0.15097 0.34612 0 0.57442-0.14361 0.22829-0.1436 0.35349-0.4345z"/>
   <path style="fill:#2347a3" d="m91.241 78.522h-3.6122v-5.4828h3.6122v0.64807h-2.8832v1.5023h2.8832v0.64807h-2.8832v2.0363h2.8832v0.64807z"/>
   <path style="fill:#2347a3" d="m95.755 78.522h-0.69225v-0.45659q-0.34981 0.27616-0.67016 0.42345t-0.70698 0.14729q-0.64807 0-1.0089-0.394-0.36086-0.39768-0.36086-1.1636v-2.6696h0.69225v2.3419q0 0.31299 0.02946 0.5376 0.02946 0.22093 0.1252 0.37927 0.09942 0.16202 0.25775 0.23566 0.15834 0.07364 0.46028 0.07364 0.2688 0 0.58547-0.13992 0.32035-0.13992 0.59652-0.35717v-3.0709h0.69225v4.113z"/>
   <path style="fill:#2347a3" d="m99.684 75.164h-0.03682q-0.15465-0.03682-0.30194-0.05155-0.14361-0.01841-0.34244-0.01841-0.32035 0-0.61861 0.1436-0.29826 0.13992-0.57442 0.36454v2.92h-0.69225v-4.113h0.69225v0.60756q0.41241-0.3314 0.72539-0.46764 0.31667-0.13992 0.64438-0.13992 0.18043 0 0.26144 0.01105 0.08101 0.0074 0.24302 0.03314v0.71066z"/>
   <path style="fill:#2347a3" d="m103.85 76.468q0 1.0052-0.51551 1.587-0.5155 0.58179-1.3808 0.58179-0.87268 0-1.3882-0.58179-0.51182-0.58179-0.51182-1.587t0.51182-1.587q0.51551-0.58547 1.3882-0.58547 0.86532 0 1.3808 0.58547 0.51551 0.58179 0.51551 1.587zm-0.71435 0q0-0.79904-0.31298-1.1857-0.31299-0.39031-0.869-0.39031-0.56338 0-0.87636 0.39031-0.30931 0.38663-0.30931 1.1857 0 0.77326 0.31299 1.1746 0.31299 0.39768 0.87268 0.39768 0.55233 0 0.86532-0.394 0.31666-0.39768 0.31666-1.1783z"/>
   <path style="fill:#2347a3" d="m108.54 76.416q0 0.50078-0.14361 0.91687-0.14361 0.4124-0.40504 0.69962-0.24303 0.27248-0.57442 0.42345-0.32772 0.14729-0.69594 0.14729-0.32035 0-0.58178-0.06996-0.25776-0.06996-0.52656-0.21725v1.7233h-0.69225v-5.6301h0.69225v0.43082q0.27617-0.23198 0.61861-0.38663 0.34613-0.15833 0.73644-0.15833 0.7438 0 1.1562 0.56338 0.41609 0.55969 0.41609 1.5576zm-0.71435 0.01841q0-0.7438-0.25407-1.112-0.25407-0.36822-0.78063-0.36822-0.29825 0-0.60019 0.12888t-0.57811 0.33876v2.3308q0.29458 0.13256 0.50446 0.18043 0.21357 0.04787 0.48237 0.04787 0.5781 0 0.90214-0.39031 0.32403-0.39031 0.32403-1.1562z"/>
   <path style="fill:#2347a3" d="m113.06 76.538h-3.0304q0 0.37927 0.11415 0.6628 0.11415 0.27985 0.31299 0.46027 0.19147 0.17674 0.45291 0.26512 0.26512 0.08837 0.58178 0.08837 0.41977 0 0.84323-0.1657 0.42713-0.16938 0.60756-0.3314h0.0368v0.75485q-0.34981 0.14729-0.71434 0.24671-0.36454 0.09942-0.7659 0.09942-1.0236 0-1.5981-0.55233-0.57443-0.55601-0.57443-1.576 0-1.0089 0.54865-1.6018 0.55233-0.59283 1.4508-0.59283 0.83217 0 1.2814 0.48605 0.45291 0.48605 0.45291 1.3808v0.37558zm-0.67384-0.53024q-0.004-0.54496-0.27617-0.84322-0.2688-0.29826-0.82113-0.29826-0.55601 0-0.8874 0.32772-0.32772 0.32772-0.37191 0.81376h2.3566z"/>
   <path style="fill:#2347a3" d="m117.31 78.522h-0.68857v-0.43818q-0.0921 0.0626-0.25039 0.17674-0.15465 0.11047-0.30194 0.17675-0.17306 0.08469-0.39768 0.13992-0.22461 0.05891-0.52655 0.05891-0.55601 0-0.94264-0.36822t-0.38663-0.93896q0-0.46764 0.19884-0.75485 0.20252-0.29089 0.57442-0.45659 0.37558-0.1657 0.90214-0.22461 0.52655-0.05892 1.1304-0.08837v-0.10678q0-0.23566-0.0847-0.39031-0.081-0.15465-0.23566-0.24302-0.14729-0.08469-0.35349-0.11415-0.20621-0.02946-0.43082-0.02946-0.27248 0-0.60756 0.07364-0.33508 0.06996-0.69225 0.2062h-0.0368v-0.7033q0.20253-0.05523 0.58547-0.12151 0.38295-0.06628 0.75485-0.06628 0.4345 0 0.75485 0.07364 0.32404 0.06996 0.5597 0.24302 0.23197 0.16938 0.35349 0.43818 0.12151 0.2688 0.12151 0.66648v2.7911zm-0.68857-1.0126v-1.1452q-0.31667 0.01841-0.74749 0.05523-0.42713 0.03682-0.67752 0.10678-0.29826 0.08469-0.48237 0.26512-0.18411 0.17674-0.18411 0.48973 0 0.35349 0.21357 0.53392 0.21357 0.17674 0.65175 0.17674 0.36454 0 0.66648-0.13992 0.30194-0.14361 0.55969-0.34244z"/>
   <path style="fill:#2347a3" d="m122.09 78.522h-0.69225v-2.3419q0-0.28353-0.0331-0.53024-0.0331-0.25039-0.12151-0.39031-0.0921-0.15465-0.26512-0.2283-0.17306-0.07733-0.44923-0.07733-0.28352 0-0.59283 0.13992-0.3093 0.13992-0.59283 0.35717v3.0709h-0.69225v-4.113h0.69225v0.45659q0.32403-0.2688 0.67016-0.41977 0.34612-0.15097 0.71066-0.15097 0.66648 0 1.0163 0.40136 0.3498 0.40136 0.3498 1.1562v2.6696z"/>
   <path style="fill:#2347a3" d="m130.26 76.321q0 0.59652-0.13256 1.0421-0.12888 0.44186-0.42713 0.73644-0.28353 0.27985-0.6628 0.40872-0.37926 0.12888-0.88373 0.12888-0.5155 0-0.89845-0.13624t-0.64438-0.40136q-0.29826-0.30194-0.43082-0.72907-0.12888-0.42714-0.12888-1.0494v-3.2808h0.72908v3.3177q0 0.44555 0.0589 0.7033 0.0626 0.25775 0.2062 0.46764 0.16202 0.23934 0.43819 0.36086 0.27984 0.12151 0.67015 0.12151 0.394 0 0.67016-0.11783 0.27617-0.12151 0.44187-0.36454 0.1436-0.20988 0.20252-0.47868 0.0626-0.27248 0.0626-0.67384v-3.3361h0.72907v3.2808z"/>
   <path style="fill:#2347a3" d="m135.04 78.522h-0.69225v-2.3419q0-0.28353-0.0331-0.53024-0.0331-0.25039-0.12152-0.39031-0.0921-0.15465-0.26511-0.2283-0.17307-0.07733-0.44923-0.07733-0.28353 0-0.59283 0.13992-0.30931 0.13992-0.59284 0.35717v3.0709h-0.69225v-4.113h0.69225v0.45659q0.32404-0.2688 0.67016-0.41977 0.34613-0.15097 0.71067-0.15097 0.66647 0 1.0163 0.40136 0.34981 0.40136 0.34981 1.1562v2.6696z"/>
   <path style="fill:#2347a3" d="m137.11 73.721h-0.78062v-0.71803h0.78062v0.71803zm-0.0442 4.8016h-0.69225v-4.113h0.69225v4.113z"/>
   <path style="fill:#2347a3" d="m141.92 76.468q0 1.0052-0.51551 1.587-0.51551 0.58179-1.3808 0.58179-0.87268 0-1.3882-0.58179-0.51182-0.58179-0.51182-1.587t0.51182-1.587q0.51551-0.58547 1.3882-0.58547 0.86531 0 1.3808 0.58547 0.51551 0.58179 0.51551 1.587zm-0.71435 0q0-0.79904-0.31298-1.1857-0.31299-0.39031-0.869-0.39031-0.56338 0-0.87636 0.39031-0.30931 0.38663-0.30931 1.1857 0 0.77326 0.31299 1.1746 0.31299 0.39768 0.87268 0.39768 0.55233 0 0.86531-0.394 0.31667-0.39768 0.31667-1.1783z"/>
   <path style="fill:#2347a3" d="m146.44 78.522h-0.69225v-2.3419q0-0.28353-0.0331-0.53024-0.0331-0.25039-0.12152-0.39031-0.0921-0.15465-0.26511-0.2283-0.17307-0.07733-0.44923-0.07733-0.28353 0-0.59283 0.13992-0.30931 0.13992-0.59284 0.35717v3.0709h-0.69225v-4.113h0.69225v0.45659q0.32404-0.2688 0.67016-0.41977 0.34613-0.15097 0.71067-0.15097 0.66647 0 1.0163 0.40136 0.34981 0.40136 0.34981 1.1562v2.6696z"/>
   <path style="fill:#2347a3" d="m153.98 73.688h-2.7727v1.5465h2.3824v0.64807h-2.3824v2.6401h-0.72907v-5.4828h3.5018v0.64807z"/>
   <path style="fill:#2347a3" d="m158.16 78.522h-0.69225v-0.45659q-0.34981 0.27616-0.67016 0.42345t-0.70698 0.14729q-0.64806 0-1.0089-0.394-0.36085-0.39768-0.36085-1.1636v-2.6696h0.69225v2.3419q0 0.31299 0.0295 0.5376 0.0294 0.22093 0.12519 0.37927 0.0994 0.16202 0.25775 0.23566 0.15834 0.07364 0.46028 0.07364 0.2688 0 0.58547-0.13992 0.32035-0.13992 0.59651-0.35717v-3.0709h0.69225v4.113z"/>
   <path style="fill:#2347a3" d="m162.96 78.522h-0.69225v-2.3419q0-0.28353-0.0331-0.53024-0.0331-0.25039-0.12152-0.39031-0.0921-0.15465-0.26511-0.2283-0.17307-0.07733-0.44923-0.07733-0.28353 0-0.59284 0.13992-0.3093 0.13992-0.59283 0.35717v3.0709h-0.69225v-4.113h0.69225v0.45659q0.32403-0.2688 0.67016-0.41977t0.71066-0.15097q0.66648 0 1.0163 0.40136 0.34981 0.40136 0.34981 1.1562v2.6696z"/>
   <path style="fill:#2347a3" d="m167.63 78.522h-0.69225v-0.43082q-0.29826 0.25775-0.62229 0.40136-0.32403 0.1436-0.7033 0.1436-0.73644 0-1.1709-0.56706-0.43081-0.56706-0.43081-1.5723 0-0.52287 0.14729-0.9316 0.15097-0.40872 0.40504-0.69594 0.25039-0.27985 0.58178-0.42713 0.33508-0.14729 0.69226-0.14729 0.32403 0 0.57442 0.06996 0.25039 0.06628 0.52655 0.20988v-1.7822h0.69225v5.7295zm-0.69225-1.0126v-2.3603q-0.27985-0.1252-0.50078-0.17306-0.22093-0.04787-0.48236-0.04787-0.58179 0-0.90582 0.40504-0.32404 0.40504-0.32404 1.1488 0 0.73276 0.25039 1.1157 0.25039 0.37927 0.80272 0.37927 0.29458 0 0.59652-0.12888 0.30194-0.13256 0.56337-0.33876z"/>
   <path style="fill:#2347a3" d="m169.74 73.721h-0.78063v-0.71803h0.78063v0.71803zm-0.0442 4.8016h-0.69225v-4.113h0.69225v4.113z"/>
   <path style="fill:#2347a3" d="m174.48 78.522h-0.69226v-2.3419q0-0.28353-0.0331-0.53024-0.0331-0.25039-0.12151-0.39031-0.0921-0.15465-0.26512-0.2283-0.17306-0.07733-0.44922-0.07733-0.28353 0-0.59284 0.13992-0.3093 0.13992-0.59283 0.35717v3.0709h-0.69225v-4.113h0.69225v0.45659q0.32403-0.2688 0.67016-0.41977t0.71066-0.15097q0.66648 0 1.0163 0.40136 0.34981 0.40136 0.34981 1.1562v2.6696z"/>
   <path style="fill:#2347a3" d="m179.15 78.055q0 1.0457-0.475 1.5355-0.47501 0.48973-1.4618 0.48973-0.32772 0-0.64071-0.04787-0.3093-0.04419-0.61124-0.12888v-0.70698h0.0368q0.16938 0.06628 0.5376 0.16202 0.36822 0.09942 0.73644 0.09942 0.35349 0 0.58547-0.08469t0.36085-0.23566q0.12888-0.1436 0.18411-0.34613 0.0552-0.20252 0.0552-0.45291v-0.37558q-0.31299 0.25039-0.6002 0.37558-0.28353 0.12151-0.72539 0.12151-0.73644 0-1.1709-0.53024-0.43082-0.53392-0.43082-1.5023 0-0.53024 0.14729-0.91318 0.15097-0.38663 0.40872-0.66648 0.23935-0.26144 0.58179-0.40504 0.34245-0.14729 0.68121-0.14729 0.35717 0 0.59651 0.07364 0.24303 0.06996 0.51183 0.21725l0.0442-0.17674h0.64807v3.6454zm-0.69225-0.6628v-2.2425q-0.27617-0.1252-0.51551-0.17674-0.23566-0.05523-0.47132-0.05523-0.57074 0-0.89846 0.38295-0.32771 0.38295-0.32771 1.112 0 0.69225 0.24302 1.0494 0.24303 0.35717 0.8064 0.35717 0.30194 0 0.60388-0.11415 0.30563-0.11783 0.5597-0.31299z"/>
   <path style="fill:#2347a3" d="m89.786 82.89h-0.03682q-0.11415-0.03314-0.29826-0.06628-0.18411-0.03682-0.32403-0.03682-0.44555 0-0.64807 0.19884-0.19884 0.19516-0.19884 0.71066v0.13992h1.2483v0.58179h-1.2262v3.5312h-0.69225v-3.5312h-0.46764v-0.58179h0.46764v-0.13624q0-0.73276 0.36454-1.1231 0.36454-0.39399 1.0531-0.39399 0.23198 0 0.41609 0.02209 0.18779 0.02209 0.34244 0.05155v0.63334z"/>
   <path style="fill:#2347a3" d="m93.73 85.894q0 1.0052-0.51551 1.587-0.51551 0.58179-1.3808 0.58179-0.87268 0-1.3882-0.58179-0.51182-0.58179-0.51182-1.587t0.51182-1.587q0.51551-0.58547 1.3882-0.58547 0.86532 0 1.3808 0.58547 0.51551 0.58179 0.51551 1.587zm-0.71435 0q0-0.79904-0.31299-1.1857-0.31299-0.39031-0.869-0.39031-0.56338 0-0.87636 0.39031-0.3093 0.38663-0.3093 1.1857 0 0.77326 0.31299 1.1746 0.31299 0.39768 0.87268 0.39768 0.55233 0 0.86532-0.39399 0.31667-0.39768 0.31667-1.1783z"/>
   <path style="fill:#2347a3" d="m97.371 84.591h-0.03682q-0.15465-0.03682-0.30194-0.05155-0.1436-0.01841-0.34244-0.01841-0.32035 0-0.61861 0.14361-0.29826 0.13992-0.57442 0.36454v2.92h-0.69225v-4.113h0.69225v0.60756q0.4124-0.3314 0.72539-0.46764 0.31667-0.13992 0.64438-0.13992 0.18043 0 0.26144 0.01105 0.08101 0.0074 0.24302 0.03314v0.71066z"/>
   <path style="fill:#2347a3" d="m105.27 87.949h-0.94633l-1.8337-2.1799h-1.0273v2.1799h-0.72907v-5.4828h1.5355q0.4971 0 0.82849 0.06628 0.3314 0.0626 0.59652 0.2283 0.29826 0.18779 0.46396 0.475 0.16938 0.28353 0.16938 0.72171 0 0.59283-0.29826 0.99419-0.29826 0.39768-0.82113 0.6002l2.062 2.3971zm-1.7049-3.9399q0-0.23566-0.0847-0.41609-0.081-0.18411-0.27248-0.3093-0.15834-0.10678-0.37558-0.14729-0.21725-0.04419-0.51183-0.04419h-0.85795v2.0694h0.73644q0.34612 0 0.60388-0.05891 0.25775-0.0626 0.43818-0.2283 0.1657-0.15465 0.24302-0.35349 0.081-0.20252 0.081-0.51182z"/>
   <path style="fill:#2347a3" d="m109.37 85.964h-3.0304q0 0.37927 0.11415 0.6628 0.11415 0.27985 0.31299 0.46027 0.19147 0.17675 0.45291 0.26512 0.26511 0.08837 0.58178 0.08837 0.41977 0 0.84322-0.1657 0.42714-0.16938 0.60757-0.3314h0.0368v0.75485q-0.34981 0.14729-0.71435 0.24671-0.36453 0.09942-0.76589 0.09942-1.0236 0-1.5981-0.55233-0.57442-0.55601-0.57442-1.576 0-1.0089 0.54865-1.6018 0.55233-0.59283 1.4508-0.59283 0.83218 0 1.2814 0.48605 0.45291 0.48605 0.45291 1.3808v0.37558zm-0.67384-0.53024q-0.004-0.54496-0.27617-0.84322-0.2688-0.29826-0.82113-0.29826-0.55601 0-0.88741 0.32772-0.32771 0.32772-0.3719 0.81376h2.3566z"/>
   <path style="fill:#2347a3" d="m113.36 86.763q0 0.56338-0.46764 0.92423-0.46395 0.36086-1.2704 0.36086-0.45659 0-0.83954-0.10678-0.37927-0.11046-0.63702-0.23934v-0.77694h0.0368q0.32772 0.24671 0.72907 0.394 0.40136 0.1436 0.76958 0.1436 0.4566 0 0.71435-0.14729t0.25775-0.46396q0-0.24302-0.13992-0.36822t-0.5376-0.21357q-0.14729-0.03314-0.38663-0.07733-0.23566-0.04419-0.43082-0.09574-0.54128-0.1436-0.76958-0.41977-0.22461-0.27985-0.22461-0.68489 0-0.25407 0.1031-0.47868 0.10678-0.22461 0.32035-0.40136 0.2062-0.17306 0.52287-0.27248 0.32035-0.1031 0.71435-0.1031 0.36822 0 0.7438 0.09206 0.37927 0.08837 0.62966 0.21725v0.74012h-0.0368q-0.26511-0.19516-0.64438-0.32772-0.37926-0.13624-0.7438-0.13624-0.37927 0-0.6407 0.14729-0.26144 0.1436-0.26144 0.43082 0 0.25407 0.15833 0.38295 0.15466 0.12888 0.50078 0.20988 0.19148 0.04419 0.42714 0.08837 0.23934 0.04419 0.39767 0.08101 0.48237 0.11046 0.74381 0.37926 0.26143 0.27248 0.26143 0.72171z"/>
   <path style="fill:#2347a3" d="m117.79 85.964h-3.0304q0 0.37927 0.11415 0.6628 0.11415 0.27985 0.31299 0.46027 0.19147 0.17675 0.45291 0.26512 0.26511 0.08837 0.58178 0.08837 0.41977 0 0.84322-0.1657 0.42714-0.16938 0.60757-0.3314h0.0368v0.75485q-0.34981 0.14729-0.71435 0.24671-0.36453 0.09942-0.76589 0.09942-1.0236 0-1.5981-0.55233-0.57442-0.55601-0.57442-1.576 0-1.0089 0.54865-1.6018 0.55233-0.59283 1.4508-0.59283 0.83218 0 1.2814 0.48605 0.45291 0.48605 0.45291 1.3808v0.37558zm-0.67384-0.53024q-0.004-0.54496-0.27617-0.84322-0.2688-0.29826-0.82113-0.29826-0.55601 0-0.88741 0.32772-0.32771 0.32772-0.3719 0.81376h2.3566z"/>
   <path style="fill:#2347a3" d="m122.04 87.949h-0.68858v-0.43818q-0.0921 0.0626-0.25038 0.17674-0.15466 0.11047-0.30194 0.17674-0.17307 0.08469-0.39768 0.13992-0.22461 0.05891-0.52655 0.05891-0.55602 0-0.94265-0.36822t-0.38663-0.93896q0-0.46764 0.19884-0.75485 0.20252-0.29089 0.57442-0.45659 0.37559-0.1657 0.90214-0.22461 0.52656-0.05892 1.1304-0.08837v-0.10678q0-0.23566-0.0847-0.39031-0.081-0.15465-0.23566-0.24302-0.14728-0.08469-0.35349-0.11415-0.2062-0.02946-0.43081-0.02946-0.27249 0-0.60757 0.07364-0.33507 0.06996-0.69225 0.2062h-0.0368v-0.7033q0.20252-0.05523 0.58547-0.12151t0.75485-0.06628q0.4345 0 0.75485 0.07364 0.32403 0.06996 0.55969 0.24302 0.23198 0.16938 0.35349 0.43818 0.12152 0.2688 0.12152 0.66648v2.7911zm-0.68858-1.0126v-1.1452q-0.31666 0.01841-0.74748 0.05523-0.42713 0.03682-0.67752 0.10678-0.29826 0.08469-0.48237 0.26512-0.18411 0.17674-0.18411 0.48973 0 0.35349 0.21357 0.53392 0.21356 0.17674 0.65174 0.17674 0.36454 0 0.66648-0.13992 0.30194-0.1436 0.55969-0.34244z"/>
   <path style="fill:#2347a3" d="m125.95 84.591h-0.0368q-0.15465-0.03682-0.30194-0.05155-0.14361-0.01841-0.34245-0.01841-0.32035 0-0.6186 0.14361-0.29826 0.13992-0.57443 0.36454v2.92h-0.69225v-4.113h0.69225v0.60756q0.41241-0.3314 0.7254-0.46764 0.31667-0.13992 0.64438-0.13992 0.18043 0 0.26144 0.01105 0.081 0.0074 0.24302 0.03314v0.71066z"/>
   <path style="fill:#2347a3" d="m129.65 87.691q-0.34612 0.1657-0.65911 0.25775-0.3093 0.09206-0.65911 0.09206-0.44555 0-0.81745-0.12888-0.3719-0.13256-0.63702-0.39768-0.2688-0.26512-0.41608-0.67016-0.14729-0.40504-0.14729-0.94632 0-1.0089 0.55233-1.5833 0.55601-0.57442 1.4655-0.57442 0.35349 0 0.69225 0.09942 0.34245 0.09942 0.62597 0.24302v0.76958h-0.0368q-0.31667-0.24671-0.65543-0.37927-0.33508-0.13256-0.65543-0.13256-0.58915 0-0.93159 0.39768-0.33876 0.394-0.33876 1.1599 0 0.7438 0.33139 1.1452 0.33508 0.39768 0.93896 0.39768 0.20989 0 0.42714-0.05523t0.39031-0.1436q0.15097-0.07733 0.28353-0.16202 0.13256-0.08837 0.20988-0.15097h0.0368v0.76221z"/>
   <path style="fill:#2347a3" d="m133.98 87.949h-0.69225v-2.3419q0-0.28353-0.0331-0.53024-0.0331-0.25039-0.12152-0.39031-0.0921-0.15465-0.26511-0.2283-0.17307-0.07733-0.44923-0.07733-0.28353 0-0.59283 0.13992-0.30931 0.13992-0.59284 0.35717v3.071h-0.69225v-5.7295h0.69225v2.0731q0.32404-0.2688 0.67016-0.41977 0.34613-0.15097 0.71066-0.15097 0.66648 0 1.0163 0.40136 0.34981 0.40136 0.34981 1.1562v2.6696z"/>
   <path style="fill:#2347a3" d="m140.2 83.563q0-0.34981-0.20988-0.54865-0.2062-0.20252-0.53024-0.20252-0.33876 0-0.55233 0.2283-0.21356 0.22461-0.21356 0.55233 0 0.27616 0.1436 0.48973 0.14729 0.21357 0.62966 0.50446 0.36085-0.12888 0.54496-0.37558 0.18779-0.25039 0.18779-0.64807zm0.71435 3.2256-1.7601-1.7159q-0.11415 0.05523-0.2283 0.14729-0.11414 0.08837-0.22829 0.24302-0.1031 0.14361-0.16938 0.34613-0.0663 0.20252-0.0663 0.45659 0 0.5376 0.31298 0.869 0.31667 0.32772 0.89478 0.32772 0.34244 0 0.67752-0.1657 0.33876-0.16938 0.56706-0.50814zm1.1083-2.1872v0.35349q0 0.35349-0.0921 0.79535t-0.31298 0.84322l1.3919 1.355h-0.90582l-0.84323-0.82481q-0.42345 0.52287-0.86531 0.73276-0.44186 0.2062-0.9095 0.2062-0.7659 0-1.274-0.44555-0.50446-0.44923-0.50446-1.1746 0-0.33876 0.0957-0.58547t0.22462-0.42714q0.12888-0.17306 0.32035-0.32403 0.19147-0.15465 0.38663-0.2688-0.40504-0.26512-0.58547-0.53392-0.17674-0.2688-0.17674-0.67752 0-0.24671 0.0957-0.46764 0.0994-0.22461 0.29458-0.40872 0.18411-0.17674 0.47868-0.28721 0.29826-0.11047 0.65543-0.11047 0.63702 0 1.031 0.32403 0.39399 0.32035 0.39399 0.81376 0 0.16202-0.0442 0.36822-0.0442 0.20252-0.15097 0.36454-0.11783 0.18043-0.33508 0.34613t-0.56338 0.28353l1.3661 1.333q0.0515-0.14729 0.0773-0.32403t0.0295-0.36822q0.007-0.2062 0.004-0.46028 0-0.25407 0-0.43082h0.71803z"/>
   <path style="fill:#2347a3" d="m148.08 87.949h-2.1651v-0.55969h0.71803v-4.3634h-0.71803v-0.55969h2.1651v0.55969h-0.71803v4.3634h0.71803v0.55969z"/>
   <path style="fill:#2347a3" d="m152.71 87.949h-0.69225v-2.3419q0-0.28353-0.0331-0.53024-0.0331-0.25039-0.12152-0.39031-0.0921-0.15465-0.26511-0.2283-0.17307-0.07733-0.44923-0.07733-0.28353 0-0.59283 0.13992-0.30931 0.13992-0.59284 0.35717v3.071h-0.69225v-4.113h0.69225v0.45659q0.32404-0.2688 0.67016-0.41977 0.34613-0.15097 0.71067-0.15097 0.66647 0 1.0163 0.40136 0.34981 0.40136 0.34981 1.1562v2.6696z"/>
   <path style="fill:#2347a3" d="m157.48 87.949h-0.69226v-2.3419q0-0.28353-0.0331-0.53024-0.0331-0.25039-0.12151-0.39031-0.0921-0.15465-0.26512-0.2283-0.17306-0.07733-0.44922-0.07733-0.28353 0-0.59284 0.13992-0.3093 0.13992-0.59283 0.35717v3.071h-0.69225v-4.113h0.69225v0.45659q0.32403-0.2688 0.67016-0.41977t0.71066-0.15097q0.66648 0 1.0163 0.40136 0.34981 0.40136 0.34981 1.1562v2.6696z"/>
   <path style="fill:#2347a3" d="m162.32 85.894q0 1.0052-0.51551 1.587-0.5155 0.58179-1.3808 0.58179-0.87268 0-1.3882-0.58179-0.51182-0.58179-0.51182-1.587t0.51182-1.587q0.51551-0.58547 1.3882-0.58547 0.86532 0 1.3808 0.58547 0.51551 0.58179 0.51551 1.587zm-0.71434 0q0-0.79904-0.31299-1.1857-0.31299-0.39031-0.869-0.39031-0.56337 0-0.87636 0.39031-0.3093 0.38663-0.3093 1.1857 0 0.77326 0.31298 1.1746 0.31299 0.39768 0.87268 0.39768 0.55233 0 0.86532-0.39399 0.31667-0.39768 0.31667-1.1783z"/>
   <path style="fill:#2347a3" d="m166.95 83.836-1.6644 4.113h-0.69593l-1.6533-4.113h0.75117l1.274 3.2735 1.263-3.2735h0.72539z"/>
   <path style="fill:#2347a3" d="m171.06 87.949h-0.68857v-0.43818q-0.0921 0.0626-0.25039 0.17674-0.15465 0.11047-0.30194 0.17674-0.17306 0.08469-0.39768 0.13992-0.22461 0.05891-0.52655 0.05891-0.55601 0-0.94264-0.36822t-0.38663-0.93896q0-0.46764 0.19884-0.75485 0.20252-0.29089 0.57442-0.45659 0.37558-0.1657 0.90214-0.22461 0.52655-0.05892 1.1304-0.08837v-0.10678q0-0.23566-0.0847-0.39031-0.081-0.15465-0.23566-0.24302-0.14729-0.08469-0.35349-0.11415t-0.43082-0.02946q-0.27248 0-0.60756 0.07364-0.33508 0.06996-0.69225 0.2062h-0.0368v-0.7033q0.20253-0.05523 0.58547-0.12151 0.38295-0.06628 0.75485-0.06628 0.4345 0 0.75485 0.07364 0.32404 0.06996 0.5597 0.24302 0.23197 0.16938 0.35349 0.43818 0.12151 0.2688 0.12151 0.66648v2.7911zm-0.68857-1.0126v-1.1452q-0.31667 0.01841-0.74749 0.05523-0.42713 0.03682-0.67752 0.10678-0.29826 0.08469-0.48237 0.26512-0.18411 0.17674-0.18411 0.48973 0 0.35349 0.21357 0.53392 0.21357 0.17674 0.65175 0.17674 0.36454 0 0.66648-0.13992 0.30194-0.1436 0.55969-0.34244z"/>
   <path style="fill:#2347a3" d="m174.53 87.912q-0.19516 0.05155-0.42714 0.08469-0.22829 0.03314-0.40872 0.03314-0.62965 0-0.95737-0.33876-0.32771-0.33876-0.32771-1.0862v-2.1872h-0.46764v-0.58179h0.46764v-1.182h0.69225v1.182h1.4287v0.58179h-1.4287v1.8742q0 0.32403 0.0147 0.50814 0.0147 0.18043 0.1031 0.33876 0.081 0.14729 0.22093 0.21725 0.1436 0.06628 0.4345 0.06628 0.16938 0 0.35349-0.04787 0.18411-0.05155 0.26512-0.08469h0.0368v0.62229z"/>
   <path style="fill:#2347a3" d="m176.12 83.147h-0.78062v-0.71803h0.78062v0.71803zm-0.0442 4.8016h-0.69226v-4.113h0.69226v4.113z"/>
   <path style="fill:#2347a3" d="m180.92 85.894q0 1.0052-0.51551 1.587-0.5155 0.58179-1.3808 0.58179-0.87268 0-1.3882-0.58179-0.51182-0.58179-0.51182-1.587t0.51182-1.587q0.51551-0.58547 1.3882-0.58547 0.86532 0 1.3808 0.58547 0.51551 0.58179 0.51551 1.587zm-0.71434 0q0-0.79904-0.31299-1.1857-0.31299-0.39031-0.869-0.39031-0.56337 0-0.87636 0.39031-0.3093 0.38663-0.3093 1.1857 0 0.77326 0.31298 1.1746 0.31299 0.39768 0.87268 0.39768 0.55233 0 0.86532-0.39399 0.31667-0.39768 0.31667-1.1783z"/>
   <path style="fill:#2347a3" d="m185.44 87.949h-0.69225v-2.3419q0-0.28353-0.0331-0.53024-0.0331-0.25039-0.12151-0.39031-0.0921-0.15465-0.26512-0.2283-0.17306-0.07733-0.44923-0.07733-0.28353 0-0.59283 0.13992-0.30931 0.13992-0.59283 0.35717v3.071h-0.69226v-4.113h0.69226v0.45659q0.32403-0.2688 0.67016-0.41977 0.34612-0.15097 0.71066-0.15097 0.66648 0 1.0163 0.40136 0.34981 0.40136 0.34981 1.1562v2.6696z"/>
  </g>
 </g>
</svg>