<?xml version="1.0" encoding="UTF-8" standalone="no"?>
<!-- Created with Inkscape (http://www.inkscape.org/) -->

<svg
   xmlns:dc="http://purl.org/dc/elements/1.1/"
   xmlns:cc="http://creativecommons.org/ns#"
   xmlns:rdf="http://www.w3.org/1999/02/22-rdf-syntax-ns#"
   xmlns:svg="http://www.w3.org/2000/svg"
   xmlns="http://www.w3.org/2000/svg"
   xmlns:sodipodi="http://sodipodi.sourceforge.net/DTD/sodipodi-0.dtd"
   xmlns:inkscape="http://www.inkscape.org/namespaces/inkscape"
   width="43.94978mm"
   height="15.27936mm"
   viewBox="0 0 43.94979 15.279359"
   version="1.1"
   id="svg8"
   inkscape:version="0.92.0 r15299"
   sodipodi:docname="logo-vaader-blue-inverted-tagged.svg"
   inkscape:export-filename="D:\Doc\Boulot\Workspace\logo\final\logo-vaader-blue-inverted-tagged.png"
   inkscape:export-xdpi="866.89856"
   inkscape:export-ydpi="866.89856">
  <defs
     id="defs2" />
  <sodipodi:namedview
     id="base"
     pagecolor="#ffffff"
     bordercolor="#666666"
     borderopacity="1.0"
     inkscape:pageopacity="0.0"
     inkscape:pageshadow="2"
     inkscape:zoom="5.6568548"
     inkscape:cx="77.628922"
     inkscape:cy="28.676961"
     inkscape:document-units="mm"
     inkscape:current-layer="layer1"
     showgrid="false"
     inkscape:window-width="1680"
     inkscape:window-height="988"
     inkscape:window-x="-8"
     inkscape:window-y="-8"
     inkscape:window-maximized="1"
     fit-margin-top="0"
     fit-margin-left="0"
     fit-margin-right="0"
     fit-margin-bottom="0"
     showguides="true"
     inkscape:guide-bbox="true" />
  <metadata
     id="metadata5">
    <rdf:RDF>
      <cc:Work
         rdf:about="">
        <dc:format>image/svg+xml</dc:format>
        <dc:type
           rdf:resource="http://purl.org/dc/dcmitype/StillImage" />
        <dc:title></dc:title>
      </cc:Work>
    </rdf:RDF>
  </metadata>
  <g
     inkscape:label="Layer 1"
     inkscape:groupmode="layer"
     id="layer1"
     transform="translate(70.410485,26.584578)">
    <path
       inkscape:label="InvertedLogo"
       inkscape:connector-curvature="0"
       id="path4632"
       d="m -69.633785,-26.584578 c -0.43018,0 -0.7767,0.346516 -0.7767,0.776696 v 10.849984 c 0,0.43018 0.34652,0.776181 0.7767,0.776181 h 42.39639 c 0.43018,0 0.77669,-0.346001 0.77669,-0.776181 v -10.849984 c 0,-0.43018 -0.34651,-0.776696 -0.77669,-0.776696 z m 0.26924,1.166853 h 1.68362 l 2.8453,8.32404 c 0.0362,0.09958 0.0925,0.149345 0.1695,0.149345 0.0769,0 0.13329,-0.04976 0.1695,-0.149345 l 2.85202,-8.32404 h 1.68362 l -3.02824,8.840287 c -0.12674,0.366642 -0.33946,0.660839 -0.6382,0.882634 -0.3078,0.230848 -0.65395,0.346232 -1.0387,0.346232 -0.38475,0 -0.7309,-0.115384 -1.0387,-0.346232 -0.29874,-0.221795 -0.51146,-0.515992 -0.6382,-0.882634 z m 11.23187,2.383317 h 0.47026 0.0506 c 0.0613,-2.61e-4 0.13007,0 0.17415,0 0.0178,9e-5 0.0349,-2.61e-4 0.0506,0 h 0.46974 v 0.135909 c 1.0212,0.157112 1.72197,0.677825 2.04897,1.37201 0.36818,0.781615 0.38664,1.66569 0.43615,2.483052 l 0.37672,0.928625 0.37672,-0.928625 c 0.0495,-0.817362 0.068,-1.701437 0.43615,-2.483052 0.327,-0.694185 1.02726,-1.214898 2.04846,-1.37201 v -0.135909 h 0.47025 0.0506 c 0.0613,-2.61e-4 0.13008,0 0.17415,0 0.0178,9e-5 0.0349,-2.61e-4 0.0506,0 h 0.46974 v 0.135909 c 1.02119,0.157112 1.72197,0.677825 2.04897,1.37201 0.36818,0.781615 0.38664,1.66569 0.43615,2.483052 l 1.26917,3.127974 0.23978,0.566891 h -1.13223 l -1.28778,-3.174483 c -0.25584,-0.455341 -0.43764,-0.617983 -0.59428,-0.668693 -0.16003,-0.05181 -0.46044,-0.02952 -1.02216,0.189136 l -0.092,0.03566 h -0.38034 -0.56586 l -0.092,-0.03566 c -0.56172,-0.218656 -0.86213,-0.240946 -1.02216,-0.189136 -0.15695,0.05081 -0.33867,0.213859 -0.59531,0.671277 l -0.72554,1.788521 0.33124,0.816487 0.23978,0.566891 h -1.13223 -1.13223 l 0.21601,-0.507979 0.35502,-0.875399 -0.72657,-1.791105 c -0.25585,-0.455341 -0.43765,-0.617983 -0.59428,-0.668693 -0.16004,-0.05181 -0.46045,-0.02952 -1.02216,0.189136 l -0.092,0.03566 h -0.38034 -0.56585 l -0.092,-0.03566 c -0.56171,-0.218656 -0.86212,-0.240946 -1.02216,-0.189136 -0.15694,0.05081 -0.33866,0.213859 -0.59531,0.671277 l -1.28674,3.171899 h -1.13223 l 0.216,-0.507979 1.29295,-3.186886 c 0.0495,-0.817362 0.068,-1.701437 0.43615,-2.483052 0.327,-0.694185 1.02726,-1.214898 2.04845,-1.37201 z m 12.55014,0.75706 h 3.1626 c 0.99047,0 1.69464,0.228921 2.11201,0.68678 0.38311,0.417368 0.57465,1.088768 0.57465,2.01383 v 1.532207 c 0,0.984241 -0.22432,1.688418 -0.67283,2.112015 -0.41737,0.389336 -1.08877,0.583944 -2.01383,0.583944 v -0.0047 h -3.1626 z m 12.52068,0 h 2.86856 c 0.93129,0 1.55455,0.08092 1.86914,0.242879 0.54507,0.283437 0.81752,0.872385 0.81752,1.766301 0,0.728836 -0.33032,1.228672 -0.99064,1.49965 0.53261,0.311468 0.79892,0.859443 0.79892,1.644344 v 1.775602 h -1.09761 v -2.06499 c 0,-0.401795 -0.11984,-0.654275 -0.35967,-0.75706 -0.24294,-0.102784 -0.78375,-0.153996 -1.6216,-0.153996 h -1.18649 v 2.976046 h -1.09813 z m -5.33766,0.0047 h 4.3987 v 1.093473 h -3.70003 v 1.877921 h 3.52743 v 0.981336 h -3.52743 v 1.877921 h 3.70003 v 1.093474 h -4.3987 c 0,0 -0.19866,5.29e-4 -0.29972,-0.10077 -0.10106,-0.101284 -0.0997,-0.299723 -0.0997,-0.299723 v -6.123141 c 0,0 -10e-4,-0.198821 0.0997,-0.299723 0.1009,-0.100902 0.29972,-0.100769 0.29972,-0.100768 z m -19.12493,0.333312 -0.0765,0.0016 c -1.0578,0.0216 -1.39222,0.328786 -1.63607,0.84646 -0.11814,0.250794 -0.18977,0.573394 -0.23927,0.936377 0.0138,-0.0049 0.0263,-0.01152 0.0403,-0.01602 0.26674,-0.08635 0.53744,-0.09644 0.82217,-0.05374 0.24588,0.03688 0.50896,0.126947 0.78187,0.227893 h 0.39997 0.21446 c 0.2729,-0.100946 0.53598,-0.191013 0.78187,-0.227893 0.28473,-0.0427 0.55543,-0.03261 0.82217,0.05374 0.014,0.0046 0.0265,0.01112 0.0403,0.01602 -0.0495,-0.362988 -0.12164,-0.68558 -0.23977,-0.936377 -0.24386,-0.517674 -0.57776,-0.82488 -1.63556,-0.84646 z m 6.9386,0 -0.0765,0.0016 c -1.0578,0.0216 -1.39223,0.328786 -1.63608,0.84646 -0.11814,0.250794 -0.18976,0.573394 -0.23926,0.936377 0.0138,-0.0049 0.0263,-0.01152 0.0403,-0.01602 0.26674,-0.08635 0.53744,-0.09644 0.82217,-0.05374 0.24588,0.03688 0.50896,0.126947 0.78186,0.227893 h 0.39998 0.21446 c 0.2729,-0.100946 0.53598,-0.191013 0.78186,-0.227893 0.28473,-0.0427 0.55543,-0.03261 0.82217,0.05374 0.014,0.0046 0.0266,0.01112 0.0403,0.01602 -0.0495,-0.362988 -0.12164,-0.68558 -0.23978,-0.936377 -0.24385,-0.517674 -0.57776,-0.82488 -1.63556,-0.84646 z m 6.10092,0.75551 v 4.737178 h 2.06499 c 0.63851,0 1.05897,-0.09474 1.26142,-0.284737 0.21803,-0.20557 0.32711,-0.643441 0.32711,-1.313098 v -1.532207 c 0,-0.64474 -0.0932,-1.068269 -0.28009,-1.270723 -0.20557,-0.224257 -0.6419,-0.336414 -1.30844,-0.336414 z m 12.5212,0.0047 v 1.873271 h 1.38286 c 0.83784,0 1.3766,-0.05121 1.61644,-0.153996 0.24294,-0.09967 0.36431,-0.369049 0.36431,-0.808219 0,-0.45163 -0.0748,-0.7164 -0.22427,-0.794267 -0.15573,-0.07787 -0.61204,-0.116789 -1.36891,-0.116789 z m -25.91832,3.157946 h 0.7152 l 1.00873,2.130102 h -2.73317 z m 6.9386,0 h 0.7152 l 1.00872,2.130102 h -2.73316 z"
       style="opacity:1;fill:#0c5aa4;fill-opacity:1;fill-rule:nonzero;stroke:none;stroke-width:0.61900002;stroke-miterlimit:4;stroke-dasharray:none;stroke-dashoffset:0;stroke-opacity:1"
       sodipodi:nodetypes="ssssssssscccscccccscccccccccccccccccccccccccccccccccccccccccccccccccccccccccccccscssccccccscscsccscscccccccccccccccccccccccccccccccccccccccccccccccccccccscsscscccscscsccccccccccc" />
    <g
       transform="translate(9e-6,15.808855)"
       aria-label=" IETR research team"
       style="font-style:normal;font-weight:normal;font-size:3.42335963px;line-height:2.1395998px;font-family:sans-serif;text-align:end;letter-spacing:0px;word-spacing:0px;text-anchor:end;fill:#073460;fill-opacity:1;stroke:none;stroke-width:0.26458332"
       id="text4486-1">
      <path
         d="m -62.217285,-29.593086 h 0.392817 v 2.478927 h -0.392817 z"
         style="font-style:normal;font-variant:normal;font-weight:normal;font-stretch:normal;font-family:'Typo Square Bold Demo';-inkscape-font-specification:'Typo Square Bold Demo';text-align:end;text-anchor:end;fill:#073460;fill-opacity:1;stroke-width:0.26458332"
         id="path4490-2"
         inkscape:connector-curvature="0" />
      <path
         d="m -60.961942,-28.5283 h 1.26203 v 0.351028 h -1.26203 v 0.671968 h 1.323877 v 0.391145 h -1.716694 v -2.477255 h 1.716694 v 0.391146 h -1.323877 z"
         style="font-style:normal;font-variant:normal;font-weight:normal;font-stretch:normal;font-family:'Typo Square Bold Demo';-inkscape-font-specification:'Typo Square Bold Demo';text-align:end;text-anchor:end;fill:#073460;fill-opacity:1;stroke-width:0.26458332"
         id="path4492-1"
         inkscape:connector-curvature="0" />
      <path
         d="m -59.41909,-29.200268 v -0.392818 h 2.061036 v 0.392818 h -0.834109 v 2.086109 h -0.392817 v -2.086109 z"
         style="font-style:normal;font-variant:normal;font-weight:normal;font-stretch:normal;font-family:'Typo Square Bold Demo';-inkscape-font-specification:'Typo Square Bold Demo';text-align:end;text-anchor:end;fill:#073460;fill-opacity:1;stroke-width:0.26458332"
         id="path4494-0"
         inkscape:connector-curvature="0" />
      <path
         d="m -56.749605,-27.114159 h -0.392817 v -2.478927 h 1.026339 q 0.499797,0 0.668625,0.08692 0.292524,0.152112 0.292524,0.63185 0,0.391146 -0.354372,0.536572 0.285837,0.167156 0.285837,0.58839 v 0.635193 h -0.392817 v -0.73883 q 0,-0.215632 -0.12871,-0.270793 -0.130382,-0.05516 -0.580032,-0.05516 h -0.424577 z m 0,-1.415813 h 0.494782 q 0.449651,0 0.578361,-0.05516 0.130382,-0.05349 0.130382,-0.289181 0,-0.242376 -0.08023,-0.284165 -0.08358,-0.04179 -0.489768,-0.04179 H -56.7496 Z"
         style="font-style:normal;font-variant:normal;font-weight:normal;font-stretch:normal;font-family:'Typo Square Bold Demo';-inkscape-font-specification:'Typo Square Bold Demo';text-align:end;text-anchor:end;fill:#073460;fill-opacity:1;stroke-width:0.26458332"
         id="path4496-5"
         inkscape:connector-curvature="0" />
      <path
         d="m -53.459971,-27.114159 h -0.392817 v -1.783557 h 0.392817 v 0.1705 q 0.01504,-0.01839 0.03343,-0.0351 0.103636,-0.09361 0.195572,-0.115338 0.08024,-0.02006 0.272465,-0.02006 0.207274,0 0.324283,0.02006 0.158798,0.02842 0.257421,0.117009 0.172171,0.157127 0.173842,0.666954 l -0.392817,0.0117 q 0,-0.347685 -0.04513,-0.387803 -0.03845,-0.0351 -0.317597,-0.0351 h -0.07188 q -0.346014,0 -0.38446,0.03343 -0.04513,0.04179 -0.04513,0.372758 z"
         style="font-style:normal;font-variant:normal;font-weight:normal;font-stretch:normal;font-family:'Typo Square Bold Demo';-inkscape-font-specification:'Typo Square Bold Demo';text-align:end;text-anchor:end;fill:#073460;fill-opacity:1;stroke-width:0.26458332"
         id="path4498-8"
         inkscape:connector-curvature="0" />
      <path
         d="m -51.980637,-28.202346 q 0.005,-0.372758 0.133725,-0.516512 0.09194,-0.103637 0.254077,-0.143755 0.148769,-0.0351 0.434606,-0.0351 h 0.13874 q 0.285837,0 0.431263,0.0351 0.163813,0.03845 0.255749,0.140411 0.08859,0.09862 0.115338,0.257421 0.02006,0.115338 0.02006,0.389474 v 0.223989 h -1.389069 q 0.005,0.274137 0.04346,0.309239 0.03845,0.0351 0.384459,0.0351 h 0.158799 q 0.279151,0 0.352699,-0.02006 0.0351,-0.01003 0.0468,-0.04513 l 0.04513,-0.103637 0.351028,0.08358 -0.04513,0.147097 q -0.07856,0.229004 -0.314254,0.295867 -0.12871,0.0351 -0.456336,0.0351 h -0.13874 q -0.274136,0 -0.391145,-0.02006 -0.158799,-0.02842 -0.257421,-0.11701 -0.162142,-0.148769 -0.173842,-0.558302 z m 1.390739,0.04179 q -0.0033,-0.264106 -0.03343,-0.299209 -0.04179,-0.04513 -0.39616,-0.04513 h -0.13874 q -0.356043,0 -0.39616,0.04513 -0.03009,0.0351 -0.03343,0.299209 z"
         style="font-style:normal;font-variant:normal;font-weight:normal;font-stretch:normal;font-family:'Typo Square Bold Demo';-inkscape-font-specification:'Typo Square Bold Demo';text-align:end;text-anchor:end;fill:#073460;fill-opacity:1;stroke-width:0.26458332"
         id="path4500-9"
         inkscape:connector-curvature="0" />
      <path
         d="m -48.07754,-28.341085 -0.392817,0.0084 v -0.09528 q 0,-0.04847 -0.02173,-0.0585 -0.01003,-0.005 -0.08692,-0.0117 -0.09695,-0.0067 -0.32094,-0.0067 h -0.13874 q -0.299209,0 -0.369415,0.0117 -0.03343,0.0067 -0.04513,0.02173 -0.01504,0.02173 -0.01504,0.08191 v 0.09027 q 0,0.06686 0.01003,0.08525 0.0117,0.01839 0.05516,0.0234 0.09194,0.0084 0.3644,0.0084 h 0.13874 q 0.493111,0 0.638537,0.08191 0.120352,0.06853 0.158798,0.183871 0.02507,0.07689 0.02507,0.24572 v 0.04513 q 0,0.172171 -0.03845,0.265779 -0.05182,0.122024 -0.187215,0.183872 -0.133725,0.06185 -0.596748,0.06185 h -0.13874 q -0.463022,0 -0.595076,-0.06018 -0.137068,-0.06185 -0.187215,-0.183872 -0.04012,-0.09361 -0.04012,-0.265778 v -0.0351 l 0.392817,-0.01337 v 0.04847 q 0,0.07355 0.005,0.08358 0.0084,0.01839 0.06185,0.0234 0.08024,0.01003 0.362729,0.01003 h 0.13874 q 0.269122,0 0.346014,-0.0084 0.05349,-0.005 0.06519,-0.0117 0.01504,-0.01003 0.01839,-0.0468 v -0.175514 q 0,-0.04179 -0.005,-0.06686 -0.0117,-0.02006 -0.08859,-0.02675 -0.09862,-0.0084 -0.335984,-0.0084 h -0.13874 q -0.463022,0 -0.595076,-0.06018 -0.137068,-0.06185 -0.187215,-0.183872 -0.04012,-0.09361 -0.04012,-0.265778 v -0.02842 q 0,-0.168827 0.02674,-0.245719 0.03845,-0.115338 0.158798,-0.182201 0.145426,-0.08023 0.636865,-0.08023 h 0.13874 q 0.493111,0 0.638537,0.08191 0.120352,0.06686 0.158798,0.1822 0.02507,0.07689 0.02507,0.247391 z"
         style="font-style:normal;font-variant:normal;font-weight:normal;font-stretch:normal;font-family:'Typo Square Bold Demo';-inkscape-font-specification:'Typo Square Bold Demo';text-align:end;text-anchor:end;fill:#073460;fill-opacity:1;stroke-width:0.26458332"
         id="path4502-7"
         inkscape:connector-curvature="0" />
      <path
         d="m -47.741556,-28.202346 q 0.005,-0.372758 0.133725,-0.516512 0.09194,-0.103637 0.254077,-0.143755 0.148769,-0.0351 0.434607,-0.0351 h 0.138739 q 0.285837,0 0.431263,0.0351 0.163813,0.03845 0.255749,0.140411 0.08859,0.09862 0.115338,0.257421 0.02006,0.115338 0.02006,0.389474 v 0.223989 h -1.389068 q 0.005,0.274137 0.04346,0.309239 0.03845,0.0351 0.38446,0.0351 h 0.158798 q 0.279151,0 0.3527,-0.02006 0.0351,-0.01003 0.0468,-0.04513 l 0.04513,-0.103637 0.351028,0.08358 -0.04513,0.147097 q -0.07856,0.229004 -0.314254,0.295867 -0.128711,0.0351 -0.456337,0.0351 h -0.138739 q -0.274137,0 -0.391146,-0.02006 -0.158798,-0.02842 -0.257421,-0.11701 -0.162141,-0.148769 -0.173842,-0.558302 z m 1.39074,0.04179 q -0.0033,-0.264106 -0.03343,-0.299209 -0.04179,-0.04513 -0.396161,-0.04513 h -0.138739 q -0.356043,0 -0.396161,0.04513 -0.03009,0.0351 -0.03343,0.299209 z"
         style="font-style:normal;font-variant:normal;font-weight:normal;font-stretch:normal;font-family:'Typo Square Bold Demo';-inkscape-font-specification:'Typo Square Bold Demo';text-align:end;text-anchor:end;fill:#073460;fill-opacity:1;stroke-width:0.26458332"
         id="path4504-3"
         inkscape:connector-curvature="0" />
      <path
         d="m -45.035297,-27.821229 q -0.08692,0.0017 -0.125367,0.02173 -0.04848,0.02675 -0.04848,0.09695 v 0.07856 q 0,0.113666 0.145426,0.118681 h 0.690355 q 0.08692,0 0.150441,-0.02006 0.04346,-0.01337 0.05683,-0.0468 0.0117,-0.02507 0.0117,-0.09194 0,-0.06686 -0.01003,-0.09194 -0.0117,-0.03176 -0.05349,-0.0468 -0.06185,-0.01839 -0.170499,-0.01839 z m 1.272059,0.70707 h -0.391145 v -0.125367 q -0.07188,0.08525 -0.230676,0.108652 -0.100294,0.01671 -0.381116,0.01671 h -0.02006 q -0.511498,0 -0.630179,-0.06018 -0.127038,-0.06519 -0.162141,-0.170499 -0.02173,-0.07188 -0.02173,-0.279151 v -0.07856 q 0,-0.208945 0.02173,-0.27915 0.0351,-0.10698 0.162141,-0.1705 0.118681,-0.06018 0.630179,-0.06018 h 0.03845 q 0.272465,0 0.371087,0.01337 0.152112,0.0234 0.222318,0.105309 -0.0017,-0.302553 -0.07522,-0.361058 -0.06352,-0.05182 -0.392818,-0.05182 h -0.163813 q -0.242376,0 -0.305896,0.0033 -0.07355,0.0033 -0.08525,0.01003 -0.0117,0.0084 -0.03009,0.06686 l -0.0234,0.07021 -0.38446,-0.07522 0.05015,-0.163813 q 0.06519,-0.212288 0.235691,-0.265778 0.11868,-0.03677 0.543257,-0.03677 h 0.163813 q 0.366073,0 0.484753,0.01337 0.180529,0.02006 0.257421,0.09695 0.07689,0.07856 0.100294,0.265779 0.01671,0.13874 0.01671,0.514841 z"
         style="font-style:normal;font-variant:normal;font-weight:normal;font-stretch:normal;font-family:'Typo Square Bold Demo';-inkscape-font-specification:'Typo Square Bold Demo';text-align:end;text-anchor:end;fill:#073460;fill-opacity:1;stroke-width:0.26458332"
         id="path4506-5"
         inkscape:connector-curvature="0" />
      <path
         d="m -43.036107,-27.114159 h -0.392817 v -1.783557 h 0.392817 v 0.1705 q 0.01504,-0.01839 0.03343,-0.0351 0.103637,-0.09361 0.195573,-0.115338 0.08023,-0.02006 0.272464,-0.02006 0.207274,0 0.324283,0.02006 0.158799,0.02842 0.257421,0.117009 0.172171,0.157127 0.173843,0.666954 l -0.392818,0.0117 q 0,-0.347685 -0.04513,-0.387803 -0.03845,-0.0351 -0.317597,-0.0351 h -0.07188 q -0.346013,0 -0.384459,0.03343 -0.04513,0.04179 -0.04513,0.372758 z"
         style="font-style:normal;font-variant:normal;font-weight:normal;font-stretch:normal;font-family:'Typo Square Bold Demo';-inkscape-font-specification:'Typo Square Bold Demo';text-align:end;text-anchor:end;fill:#073460;fill-opacity:1;stroke-width:0.26458332"
         id="path4508-2"
         inkscape:connector-curvature="0" />
      <path
         d="m -40.14932,-27.826244 0.38613,0.06519 -0.03176,0.192229 q -0.05182,0.305896 -0.287509,0.399504 -0.137068,0.05516 -0.51317,0.05516 h -0.138739 q -0.274136,0 -0.391146,-0.02006 -0.158798,-0.02842 -0.25742,-0.11701 -0.100294,-0.09361 -0.13874,-0.255749 -0.0351,-0.147097 -0.0351,-0.432934 v -0.130382 q 0,-0.275808 0.01839,-0.389474 0.02675,-0.16047 0.115338,-0.259092 0.09194,-0.103637 0.254078,-0.143755 0.148769,-0.0351 0.434606,-0.0351 h 0.138739 q 0.376102,0 0.5349,0.06853 0.222318,0.09862 0.269122,0.37443 l 0.03176,0.19223 -0.387803,0.06352 -0.03009,-0.193901 q -0.0117,-0.06519 -0.04012,-0.07689 -0.08024,-0.0351 -0.377773,-0.0351 h -0.138739 q -0.356043,0 -0.396161,0.04513 -0.03343,0.03845 -0.03343,0.389474 v 0.130382 q 0,0.356042 0.04513,0.397831 0.03845,0.0351 0.38446,0.0351 h 0.138739 q 0.304225,0 0.369416,-0.02507 0.03009,-0.01337 0.04513,-0.100294 z"
         style="font-style:normal;font-variant:normal;font-weight:normal;font-stretch:normal;font-family:'Typo Square Bold Demo';-inkscape-font-specification:'Typo Square Bold Demo';text-align:end;text-anchor:end;fill:#073460;fill-opacity:1;stroke-width:0.26458332"
         id="path4510-1"
         inkscape:connector-curvature="0" />
      <path
         d="m -39.423862,-29.593086 h 0.392817 v 0.916017 q 0.01504,-0.02173 0.03343,-0.04179 0.09194,-0.103637 0.254078,-0.143755 0.147097,-0.0351 0.3644,-0.0351 0.202259,0 0.347685,0.0351 0.163813,0.03845 0.255749,0.140411 0.08859,0.09862 0.115338,0.257421 0.02006,0.115338 0.02006,0.389474 v 0.961148 h -0.392817 v -0.961148 q 0,-0.346013 -0.03343,-0.384459 -0.04179,-0.04513 -0.39616,-0.04513 h -0.13874 q -0.356042,0 -0.39616,0.04513 -0.03343,0.03845 -0.03343,0.347685 v 0.997922 h -0.392817 z"
         style="font-style:normal;font-variant:normal;font-weight:normal;font-stretch:normal;font-family:'Typo Square Bold Demo';-inkscape-font-specification:'Typo Square Bold Demo';text-align:end;text-anchor:end;fill:#073460;fill-opacity:1;stroke-width:0.26458332"
         id="path4512-3"
         inkscape:connector-curvature="0" />
      <path
         d="m -35.030995,-27.88642 h 0.392817 v 0.260763 q 0,0.108652 -0.01504,0.180529 -0.02006,0.10698 -0.07856,0.178857 -0.06352,0.08023 -0.172171,0.115338 -0.07522,0.0234 -0.187215,0.03176 -0.04179,0.0017 -0.120352,0.0033 -0.09695,0.0017 -0.140411,0.0017 l -0.123696,-0.0017 q -0.06519,0 -0.105308,-0.0017 -0.110323,-0.005 -0.183872,-0.0234 -0.10698,-0.02507 -0.177186,-0.08859 -0.08024,-0.07355 -0.108651,-0.193902 -0.01839,-0.07856 -0.01839,-0.200587 v -0.922703 h -0.265778 v -0.351028 h 0.265778 v -0.69537 h 0.392818 v 0.69537 h 0.956133 v 0.351028 h -0.956133 v 0.904316 q 0,0.05349 0.03009,0.09194 0.03343,0.03845 0.08191,0.04179 0.04513,0.0017 0.09194,0.0017 h 0.255749 q 0.05349,0 0.101966,-0.0033 0.06352,-0.005 0.07355,-0.02006 0.01003,-0.01337 0.01003,-0.09528 z"
         style="font-style:normal;font-variant:normal;font-weight:normal;font-stretch:normal;font-family:'Typo Square Bold Demo';-inkscape-font-specification:'Typo Square Bold Demo';text-align:end;text-anchor:end;fill:#073460;fill-opacity:1;stroke-width:0.26458332"
         id="path4514-9"
         inkscape:connector-curvature="0" />
      <path
         d="m -34.382429,-28.202346 q 0.005,-0.372758 0.133725,-0.516512 0.09194,-0.103637 0.254077,-0.143755 0.148769,-0.0351 0.434607,-0.0351 h 0.138739 q 0.285837,0 0.431263,0.0351 0.163814,0.03845 0.255749,0.140411 0.08859,0.09862 0.115338,0.257421 0.02006,0.115338 0.02006,0.389474 v 0.223989 h -1.389068 q 0.005,0.274137 0.04346,0.309239 0.03845,0.0351 0.38446,0.0351 h 0.158798 q 0.279151,0 0.3527,-0.02006 0.0351,-0.01003 0.0468,-0.04513 l 0.04513,-0.103637 0.351028,0.08358 -0.04513,0.147097 q -0.07856,0.229004 -0.314254,0.295867 -0.12871,0.0351 -0.456337,0.0351 h -0.138739 q -0.274137,0 -0.391146,-0.02006 -0.158798,-0.02842 -0.257421,-0.11701 -0.162141,-0.148769 -0.173842,-0.558302 z m 1.39074,0.04179 q -0.0033,-0.264106 -0.03343,-0.299209 -0.04179,-0.04513 -0.396161,-0.04513 h -0.138739 q -0.356043,0 -0.396161,0.04513 -0.03009,0.0351 -0.03343,0.299209 z"
         style="font-style:normal;font-variant:normal;font-weight:normal;font-stretch:normal;font-family:'Typo Square Bold Demo';-inkscape-font-specification:'Typo Square Bold Demo';text-align:end;text-anchor:end;fill:#073460;fill-opacity:1;stroke-width:0.26458332"
         id="path4516-8"
         inkscape:connector-curvature="0" />
      <path
         d="m -31.676171,-27.821229 q -0.08692,0.0017 -0.125368,0.02173 -0.04848,0.02675 -0.04848,0.09695 v 0.07856 q 0,0.113666 0.145426,0.118681 h 0.690355 q 0.08692,0 0.150441,-0.02006 0.04346,-0.01337 0.05683,-0.0468 0.0117,-0.02507 0.0117,-0.09194 0,-0.06686 -0.01003,-0.09194 -0.0117,-0.03176 -0.05349,-0.0468 -0.06185,-0.01839 -0.1705,-0.01839 z m 1.272059,0.70707 h -0.391146 v -0.125367 q -0.07188,0.08525 -0.230676,0.108652 -0.100293,0.01671 -0.381116,0.01671 h -0.02006 q -0.511498,0 -0.630179,-0.06018 -0.127038,-0.06519 -0.162141,-0.170499 -0.02173,-0.07188 -0.02173,-0.279151 v -0.07856 q 0,-0.208945 0.02173,-0.27915 0.0351,-0.10698 0.162141,-0.1705 0.118681,-0.06018 0.630179,-0.06018 h 0.03845 q 0.272465,0 0.371087,0.01337 0.152112,0.0234 0.222318,0.105309 -0.0017,-0.302553 -0.07522,-0.361058 -0.06352,-0.05182 -0.392817,-0.05182 h -0.163814 q -0.242376,0 -0.305895,0.0033 -0.07355,0.0033 -0.08525,0.01003 -0.0117,0.0084 -0.03009,0.06686 l -0.0234,0.07021 -0.38446,-0.07522 0.05015,-0.163813 q 0.06519,-0.212288 0.235691,-0.265778 0.118681,-0.03677 0.543257,-0.03677 h 0.163814 q 0.366072,0 0.484753,0.01337 0.180528,0.02006 0.25742,0.09695 0.07689,0.07856 0.100294,0.265779 0.01672,0.13874 0.01672,0.514841 z"
         style="font-style:normal;font-variant:normal;font-weight:normal;font-stretch:normal;font-family:'Typo Square Bold Demo';-inkscape-font-specification:'Typo Square Bold Demo';text-align:end;text-anchor:end;fill:#073460;fill-opacity:1;stroke-width:0.26458332"
         id="path4518-7"
         inkscape:connector-curvature="0" />
      <path
         d="m -28.598824,-28.633609 q 0.02006,-0.04179 0.05015,-0.07856 0.152113,-0.185544 0.399504,-0.185544 0.262435,0 0.391145,0.03009 0.153784,0.0351 0.244048,0.137069 0.137069,0.152112 0.137069,0.655252 v 0.961148 h -0.392818 v -0.961148 q 0,-0.354371 -0.03677,-0.394489 -0.03009,-0.0351 -0.34267,-0.0351 -0.314254,0 -0.346014,0.04012 -0.03176,0.03845 -0.03176,0.382788 v 0.967834 h -0.392817 v -0.961148 q 0,-0.354371 -0.03677,-0.394489 -0.03009,-0.0351 -0.34267,-0.0351 -0.314254,0 -0.346013,0.04012 -0.03176,0.03845 -0.03176,0.3527 v 0.997922 h -0.392817 v -1.783557 h 0.392817 v 0.16047 q 0.15044,-0.16047 0.377773,-0.16047 0.262435,0 0.391145,0.03009 0.153784,0.0351 0.244049,0.137069 0.03845,0.04346 0.06519,0.09695 z"
         style="font-style:normal;font-variant:normal;font-weight:normal;font-stretch:normal;font-family:'Typo Square Bold Demo';-inkscape-font-specification:'Typo Square Bold Demo';text-align:end;text-anchor:end;fill:#073460;fill-opacity:1;stroke-width:0.26458332"
         id="path4520-6"
         inkscape:connector-curvature="0" />
    </g>
  </g>
</svg>
