<?xml version="1.0" encoding="UTF-8" standalone="no"?>
<!-- Created with Inkscape (http://www.inkscape.org/) -->

<svg
   xmlns:dc="http://purl.org/dc/elements/1.1/"
   xmlns:cc="http://creativecommons.org/ns#"
   xmlns:rdf="http://www.w3.org/1999/02/22-rdf-syntax-ns#"
   xmlns:svg="http://www.w3.org/2000/svg"
   xmlns="http://www.w3.org/2000/svg"
   xmlns:sodipodi="http://sodipodi.sourceforge.net/DTD/sodipodi-0.dtd"
   xmlns:inkscape="http://www.inkscape.org/namespaces/inkscape"
   id="svg2"
   version="1.1"
   inkscape:version="0.91 r13725"
   xml:space="preserve"
   width="263.62766"
   height="249.84924"
   viewBox="0 0 263.62766 249.84924"
   sodipodi:docname="spider.svg"><metadata
     id="metadata8"><rdf:RDF><cc:Work
         rdf:about=""><dc:format>image/svg+xml</dc:format><dc:type
           rdf:resource="http://purl.org/dc/dcmitype/StillImage" /><dc:title></dc:title></cc:Work></rdf:RDF></metadata><defs
     id="defs6" /><sodipodi:namedview
     pagecolor="#ffffff"
     bordercolor="#666666"
     borderopacity="1"
     objecttolerance="10"
     gridtolerance="10"
     guidetolerance="10"
     inkscape:pageopacity="0"
     inkscape:pageshadow="2"
     inkscape:window-width="1327"
     inkscape:window-height="884"
     id="namedview4"
     showgrid="false"
     inkscape:zoom="0.9445696"
     inkscape:cx="133.93119"
     inkscape:cy="124.92462"
     inkscape:window-x="0"
     inkscape:window-y="0"
     inkscape:window-maximized="0"
     inkscape:current-layer="g10" /><g
     id="g10"
     inkscape:groupmode="layer"
     inkscape:label="spider"
     transform="matrix(1.25,0,0,-1.25,0,249.84924)"><g
       id="g12"><g
         id="g14"
         transform="matrix(1,0,0,-1,0,199.87939)"><path
           d="m 25.242,75.375 c 12.817,-2.383 25.004,-4.84 51.016,7.289 8.105,5 9.988,10.629 18.262,29.945 l 0.148,3.086 C 85.484,109.242 77.363,91.637 70.453,88.602 63.539,85.566 41.859,77.57 25.242,75.375 Z"
           style="fill:#000000;fill-opacity:1;fill-rule:nonzero;stroke:#000000;stroke-width:0.80000001;stroke-linecap:butt;stroke-linejoin:miter;stroke-miterlimit:4;stroke-dasharray:none;stroke-opacity:1"
           id="path16"
           inkscape:connector-curvature="0" /></g><g
         id="g18"
         transform="matrix(1,0,0,-1,0,199.87939)"><path
           d="m 185.242,75.375 c -12.82,-2.383 -25.008,-4.84 -51.015,7.289 -8.11,5 -9.993,10.629 -18.266,29.945 l -0.149,3.086 c 9.188,-6.453 17.305,-24.058 24.219,-27.093 6.91,-3.036 28.594,-11.032 45.211,-13.227 z"
           style="fill:#000000;fill-opacity:1;fill-rule:nonzero;stroke:#000000;stroke-width:0.80000001;stroke-linecap:butt;stroke-linejoin:miter;stroke-miterlimit:4;stroke-dasharray:none;stroke-opacity:1"
           id="path20"
           inkscape:connector-curvature="0" /></g><g
         id="g22"
         transform="matrix(1,0,0,-1,0,199.87939)"><path
           d="M 93.457,102.914 90.883,97.055 C 87.391,49.531 67.812,33.949 59.598,26.34 c 12.746,0.367 35.047,29.539 35.714,46 0.668,16.465 0.856,24.43 0.856,24.43 l -2.711,6.144 z"
           style="fill:#000000;fill-opacity:1;fill-rule:nonzero;stroke:#000000;stroke-width:0.80000001;stroke-linecap:butt;stroke-linejoin:miter;stroke-miterlimit:4;stroke-dasharray:none;stroke-opacity:1"
           id="path24"
           inkscape:connector-curvature="0" /></g><g
         id="g26"
         transform="matrix(1,0,0,-1,0,199.87939)"><path
           d="m 117.027,102.914 2.571,-5.859 c 3.492,-47.524 23.07,-63.106 31.285,-70.715 -12.746,0.367 -35.047,29.539 -35.715,46 -0.668,16.465 -0.856,24.43 -0.856,24.43 l 2.715,6.144 z"
           style="fill:#000000;fill-opacity:1;fill-rule:nonzero;stroke:#000000;stroke-width:0.80000001;stroke-linecap:butt;stroke-linejoin:miter;stroke-miterlimit:4;stroke-dasharray:none;stroke-opacity:1"
           id="path28"
           inkscape:connector-curvature="0" /></g><g
         id="g30"
         transform="matrix(1,0,0,-1,0,199.87939)"><path
           d="M 93.457,117.484 C 58.117,94.852 38.793,107.363 30.742,114.34 c 9.164,-2.555 32.946,-5.164 41.426,-0.285 8.484,4.883 14.648,8.222 23.43,7.285 0,0 -0.903,-3.063 -2.141,-3.856 z"
           style="fill:#000000;fill-opacity:1;fill-rule:nonzero;stroke:#000000;stroke-width:0.80000001;stroke-linecap:butt;stroke-linejoin:miter;stroke-miterlimit:4;stroke-dasharray:none;stroke-opacity:1"
           id="path32"
           inkscape:connector-curvature="0" /></g><g
         id="g34"
         transform="matrix(1,0,0,-1,0,199.87939)"><path
           d="m 117.027,117.484 c 35.34,-22.632 54.661,-10.121 62.715,-3.144 -9.164,-2.555 -32.949,-5.164 -41.43,-0.285 -8.48,4.883 -14.648,8.222 -23.429,7.285 0,0 0.906,-3.063 2.144,-3.856 z"
           style="fill:#000000;fill-opacity:1;fill-rule:nonzero;stroke:#000000;stroke-width:0.80000001;stroke-linecap:butt;stroke-linejoin:miter;stroke-miterlimit:4;stroke-dasharray:none;stroke-opacity:1"
           id="path36"
           inkscape:connector-curvature="0" /></g><g
         id="g38"
         transform="matrix(1,0,0,-1,0,199.87939)"><path
           d="m 116.742,109.555 c 0,9.269 -5.148,16.785 -11.5,16.785 -6.351,0 -11.5,-7.516 -11.5,-16.785 0,-9.27 5.149,-16.785 11.5,-16.785 6.352,0 11.5,7.515 11.5,16.785 z"
           style="fill:#000000;fill-opacity:1;fill-rule:nonzero;stroke:#000000;stroke-width:2.4000001;stroke-linecap:butt;stroke-linejoin:miter;stroke-miterlimit:4;stroke-dasharray:none;stroke-opacity:1"
           id="path40"
           inkscape:connector-curvature="0" /></g><g
         id="g42"
         transform="matrix(1,0,0,-1,0,199.87939)"><path
           d="m 119.098,144.984 c 0,11.086 -6.203,20.071 -13.856,20.071 -7.656,0 -13.859,-8.985 -13.859,-20.071 0,-11.086 6.203,-20.07 13.859,-20.07 7.653,0 13.856,8.984 13.856,20.07 z"
           style="fill:#000000;fill-opacity:1;fill-rule:nonzero;stroke:#000000;stroke-width:2.4000001;stroke-linecap:butt;stroke-linejoin:miter;stroke-miterlimit:4;stroke-dasharray:none;stroke-opacity:1"
           id="path44"
           inkscape:connector-curvature="0" /></g><g
         id="g46"
         transform="matrix(1,0,0,-1,0,199.87939)"><path
           d="m 97.523,123.629 c -32.796,15.316 -28.433,42.883 -34,51.141 10.153,-6.344 14.891,-30.008 30.571,-41.856 l 7.441,-6.086 -4.012,-3.199 z"
           style="fill:#000000;fill-opacity:1;fill-rule:nonzero;stroke:#000000;stroke-width:0.80000001;stroke-linecap:butt;stroke-linejoin:miter;stroke-miterlimit:4;stroke-dasharray:none;stroke-opacity:1"
           id="path48"
           inkscape:connector-curvature="0" /></g><g
         id="g50"
         transform="matrix(1,0,0,-1,0,199.87939)"><path
           d="m 112.957,123.629 c 32.801,15.316 28.438,42.883 34,51.141 -10.148,-6.344 -14.887,-30.008 -30.57,-41.856 l -7.442,-6.086 4.012,-3.199 z"
           style="fill:#000000;fill-opacity:1;fill-rule:nonzero;stroke:#000000;stroke-width:0.80000001;stroke-linecap:butt;stroke-linejoin:miter;stroke-miterlimit:4;stroke-dasharray:none;stroke-opacity:1"
           id="path52"
           inkscape:connector-curvature="0" /></g><path
         d="m 32.512,176.274 -16.258,0 0,-152.672 16.254,0 0,-17.816 -16.254,0 C 7.25,5.782 0,13.731 0,23.598 l 0,152.676 c 0,9.871 7.25,17.82 16.254,17.82 l 16.254,0 0,-17.82 0.004,0 z"
         style="fill:#bed63a;fill-opacity:1;fill-rule:nonzero;stroke:none"
         id="path54"
         inkscape:connector-curvature="0" /><path
         d="m 178.391,23.598 16.257,0 0,152.676 -16.257,0 0,17.82 16.257,0 c 9.004,0 16.254,-7.949 16.254,-17.82 l 0,-152.672 c 0,-9.871 -7.25,-17.816 -16.254,-17.816 l -16.257,0 0,17.812 z"
         style="fill:#bed63a;fill-opacity:1;fill-rule:nonzero;stroke:none"
         id="path56"
         inkscape:connector-curvature="0" /><path
         d="m 105.684,45.086 -10.043,3.192 10.043,14.383 10.05,-14.383 -10.05,-3.192 z"
         style="fill:#000000;fill-opacity:1;fill-rule:nonzero;stroke:none"
         id="path58"
         inkscape:connector-curvature="0" /><path
         d="m 105.684,62.661 -0.836,-0.586 9.254,-13.242 -8.414,-2.672 -8.415,2.672 9.25,13.242 -0.839,0.586 -0.836,-0.586 0.836,0.586 -0.836,0.582 -10.047,-14.379 c -0.184,-0.266 -0.235,-0.606 -0.129,-0.914 0.105,-0.309 0.348,-0.547 0.66,-0.645 l 10.043,-3.191 c 0.199,-0.063 0.422,-0.063 0.621,0 l 10.047,3.191 c 0.312,0.098 0.555,0.336 0.66,0.645 0.106,0.308 0.055,0.648 -0.129,0.914 l -10.051,14.379 c -0.191,0.277 -0.503,0.437 -0.839,0.437 -0.332,0 -0.645,-0.164 -0.836,-0.437 l 0.836,-0.582 z"
         style="fill:#ffffff;fill-opacity:1;fill-rule:nonzero;stroke:none"
         id="path60"
         inkscape:connector-curvature="0" /><path
         d="m 95.641,48.278 10.043,14.383 0,-17.575 -10.043,3.192 z"
         style="fill:#000000;fill-opacity:1;fill-rule:nonzero;stroke:none"
         id="path62"
         inkscape:connector-curvature="0" /><path
         d="m 105.684,62.661 -1.02,0 0,-16.176 -7.391,2.348 9.25,13.242 -0.839,0.586 -1.02,0 1.02,0 -0.836,0.582 -10.047,-14.379 c -0.184,-0.266 -0.235,-0.606 -0.129,-0.914 0.105,-0.309 0.348,-0.547 0.66,-0.645 l 10.043,-3.191 c 0.309,-0.098 0.652,-0.043 0.914,0.148 0.262,0.192 0.418,0.5 0.418,0.824 l 0,17.575 c 0,0.445 -0.289,0.839 -0.715,0.972 -0.426,0.133 -0.887,-0.023 -1.144,-0.39 l 0.836,-0.582 z"
         style="fill:#ffffff;fill-opacity:1;fill-rule:nonzero;stroke:none"
         id="path64"
         inkscape:connector-curvature="0" /></g></g></svg>